<?xml version="1.0" encoding="utf-8"?>
<!-- Generator: Adobe Illustrator 28.2.0, SVG Export Plug-In . SVG Version: 6.00 Build 0)  -->
<svg version="1.1" id="Layer_1" xmlns="http://www.w3.org/2000/svg" xmlns:xlink="http://www.w3.org/1999/xlink" x="0px" y="0px"
	 width="609.59" height="228.32" viewBox="0 0 609.59 228.32" style="enable-background:new 0 0 609.59 228.32;" xml:space="preserve">
<style type="text/css">
	.st0{fill:#FFECD5;}
	.st1{fill:none;stroke:#D5CB9D;stroke-width:1.1072;stroke-miterlimit:10;}
	.st2{clip-path:url(#SVGID_00000096044846595565054760000000669956353560096400_);}
	.st3{fill:#98A869;}
</style>
<g>
	<g>
		<g>
			<g>
				<path class="st0" d="M295.01,83.46c-1.6-2.4-4.88-6.5-7.4-9.41c-1.59-1.84-6.08-7.27-10.83-11.15c0,0-1.41,4.24-6,5.29
					c1.7,1.61,3.25,3.19,4.66,4.72c7.95,8.67,11.92,17.76,11.92,27.27c0,6.77-1.65,12.26-4.96,16.49
					c-3.31,4.22-7.97,6.33-13.98,6.33c-4.11,0-7.74-1.03-10.9-3.08c-3.16-2.05-5.57-4.64-7.24-7.76c-1.67-3.12-2.91-6.35-3.71-9.7
					c-0.8-3.35-1.08-6.54-0.86-9.58h-0.34c-2.89,3.19-4.49,6.62-4.79,10.27c-0.3,3.65,0.51,6.96,2.45,9.93
					c1.94,2.97,4.99,6.29,9.48,8.27c4.49,1.98,9.74,2.97,15.75,2.97c8.9,0,16.49-2,22.76-5.99c6.28-3.99,9.57-10.6,9.57-18.13
					c0-2.97-0.53-5.9-1.6-8.79C297.94,88.49,296.61,85.85,295.01,83.46z"/>
			</g>
			<g>
				<path class="st0" d="M445.57,83.41c-1.6-2.4-4.88-6.5-7.4-9.41c-1.59-1.84-6.08-7.27-10.83-11.15c0,0-1.41,4.24-6,5.29
					c1.7,1.61,3.25,3.19,4.66,4.72c7.95,8.67,11.92,17.76,11.92,27.27c0,6.77-1.65,12.26-4.96,16.49
					c-3.31,4.22-7.97,6.33-13.98,6.33c-4.11,0-7.74-1.03-10.9-3.08c-3.16-2.05-5.57-4.64-7.24-7.76c-1.67-3.12-2.91-6.35-3.71-9.7
					c-0.8-3.35-1.08-6.54-0.86-9.58h-0.34c-2.89,3.19-4.49,6.62-4.79,10.27c-0.3,3.65,0.51,6.96,2.45,9.93
					c1.94,2.97,4.99,6.29,9.48,8.27c4.49,1.98,9.74,2.97,15.75,2.97c8.9,0,16.49-2,22.76-5.99c6.28-3.99,9.57-10.6,9.57-18.13
					c0-2.97-0.53-5.9-1.6-8.79C448.5,88.45,447.17,85.8,445.57,83.41z"/>
			</g>
			<g>
				<path class="st0" d="M217.67,134.88c-8.37-9.34-18.01-13.73-30.24-14.22c-0.61-0.02-2.15-0.12-3.29-0.16
					c7.47-0.57,13.17-1.6,19.2-3.63c6.37-2.15,11.73-5.49,16.07-10.01c4.34-4.52,6.51-10.01,6.51-16.46
					c0-6.56-1.96-11.99-5.88-16.29c-3.92-4.3-8.59-7.24-14.02-8.82c-5.43-1.58-11.45-2.38-18.06-2.38c-7.18,0-14.87,1.36-20.25,4.07
					c-5.38,2.72-9.32,6.17-11.82,10.35c-2.5,4.19-3.59,8.91-3.26,14.17c0.33,5.26,2.24,10.27,5.74,15.02h0.43
					c-0.19-3.51-0.02-7.18,0.5-11.03c0.52-3.84,1.51-7.66,2.97-11.46c1.46-3.79,3.26-7.21,5.38-10.27c2.12-3.05,4.84-5.52,8.14-7.38
					c3.3-1.87,8.3-2.8,12.18-2.8c7.93,0,13.83,2.66,17.7,7.98c3.87,5.32,5.81,11.6,5.81,18.84c0,19.24-11.62,28.85-37.39,29.87v0.68
					c2.02,0.13,4.2,0.18,6.74,0.38c0,0,3.4,0.3,6.57,0.99c6.23,1.34,8.54,2.43,11.38,3.9c3.35,1.73,6.11,4.15,9.82,9.24
					c6.25,8.57,8.14,21.21,8.14,35.61c0,14.22-2.72,28.54-8.14,37.87c-5.43,9.34-12.56,14.01-21.4,14.01
					c-8.92,0-16.09-4.65-21.52-13.94c-5.43-9.29-8.14-23.63-8.14-37.94c0-9.58,2.27-22.47,4.68-29.81
					c-4.59,4.75-11.47,4.81-16.36,4.37c-1.63,7-2.45,15.4-1.81,25.44c0.93,14.56,4.21,29.09,12.62,38.43
					c8.41,9.34,18.59,14.01,30.53,14.01c1.98,0,3.96-0.16,5.93-0.45c1.84-0.28,3.67-0.68,5.47-1.19c1.42-0.4,2.82-0.87,4.19-1.44
					c2.94-1.23,5.76-2.84,8.4-4.83c2.66-2,5.12-4.37,7.35-7.03c0.38-0.45,0.75-0.91,1.11-1.37c7.06-9.01,10.58-22.75,10.58-36.13
					C230.23,156.27,226.05,144.22,217.67,134.88z"/>
			</g>
			<path class="st0" d="M544.52,124.36c0,0-10.25-9.87-10.25-29c0-9.54,3.42-17.29,10.25-23.24c6.84-5.95,15.33-8.93,25.48-8.93
				c10.15,0,18.64,2.98,25.48,8.93c6.84,5.95,10.25,13.7,10.25,23.24c0,9.45-2.69,21.84-10.25,29.33h-10.19
				c3.92-7.18,5.61-17.82,5.61-29.33c0-10.33-1.87-18.18-5.61-23.57c-3.74-5.38-8.84-8.07-15.29-8.07c-6.45,0-11.52,2.69-15.22,8.07
				c-3.7,5.38-5.55,13.24-5.55,23.57c0,19.49,5.55,29,5.55,29H544.52z"/>
			<path class="st0" d="M524.58,60.54l0.26-0.26c-2.39-8.02-7.38-11.85-14.97-11.5c-7.31,0.34-16.27,5.33-26.87,14.95
				c-0.29,0.38-0.64,0.74-0.99,1.1l7.51-8.92l-0.01,0c4.76-5.34,7.15-11.88,7.15-19.62c0-9.33-3.39-16.91-10.18-22.73
				c-6.79-5.82-15.22-8.73-25.29-8.73c-10.07,0-18.5,2.91-25.29,8.73c-6.79,5.82-10.18,13.4-10.18,22.73
				c0,9.25,3.39,16.78,10.18,22.6c6.79,5.82,15.22,8.73,25.29,8.73c3.62,0,7.02-0.38,10.21-1.13c-3.71,5.8-7.93,13.39-8.87,19.05
				c0,0.02,0,0.04-0.01,0.06c-0.73,2.71-1.1,5.6-1.1,8.7c0,8.88,3.06,16.17,9.18,21.85c6.12,5.69,13.52,8.53,22.21,8.53
				c1.44,0,2.88-0.1,4.31-0.28c1.34-0.17,2.67-0.41,3.98-0.72c1.03-0.24,2.05-0.53,3.05-0.88c2.14-0.75,4.19-1.73,6.11-2.94
				c1.93-1.22,3.73-2.66,5.34-4.28c0.27-0.27,0.54-0.55,0.81-0.83c5.13-5.49,7.7-12.3,7.7-20.45c0-9-3.05-16.34-9.14-22.02
				c-6.09-5.69-13.48-8.53-22.17-8.53c-3.87,0-7.48,0.57-10.84,1.69c5.65-4.71,11.79-7.43,18.43-8.16
				C508.47,56.42,516.52,57.5,524.58,60.54z M446.08,59.21c-3.67-5.26-5.51-12.9-5.51-22.92c0-10.1,1.83-17.78,5.51-23.05
				c3.67-5.26,8.71-7.9,15.11-7.9s11.46,2.63,15.17,7.9c3.71,5.26,5.57,12.95,5.57,23.05c0,10.02-1.86,17.66-5.57,22.92
				s-8.77,7.9-15.17,7.9S449.75,64.48,446.08,59.21z M508.4,72.63c3.95,5.69,5.92,12.91,5.92,21.68c0,8.66-1.98,15.83-5.92,21.51
				c-3.95,5.69-9.14,8.53-15.57,8.53c-6.49,0-11.71-2.83-15.65-8.49c-3.95-5.66-5.92-12.84-5.92-21.55c0-8.77,1.97-16,5.92-21.68
				c3.95-5.69,9.17-8.53,15.65-8.53C499.26,64.1,504.45,66.94,508.4,72.63z"/>
			<path class="st0" d="M325.8,69.29c0.07-1.67,0.18-3.17,0.22-4.35c0.34-9.55,1.89-14.94,2.97-19.65
				c1.35-5.93,3.4-11.59,6.37-16.92c2.97-5.33,7.27-9.79,12.89-13.38c5.62-3.59,12.44-6.14,20.46-7.65c4.44-1.04,9.3-1.6,14.59-1.7
				V5.06c-5.01,0.1-10.01,0.62-15.01,1.56c-18.32,2.74-32.46,9.44-42.41,20.11c-9.76,10.45-14.72,22.99-14.92,37.61
				c-0.01,0-0.01,0-0.02,0v59.9h14.87V93.31c0.66-9.06,3.35-16.05,8.07-20.96c4.72-4.91,10.15-7.36,16.29-7.36
				c10.38,0,15.58,6.42,15.58,19.26v40h15.01V87.79c-0.19-16.8-8.4-25.21-24.64-25.21c-8.59,0-15.44,2.32-20.53,6.94
				c-5.1,4.63-8.36,10.95-9.77,18.98V69.29z"/>
			<path class="st0" d="M576.47,51.81c-1.71,1.62-3.87,2.43-6.48,2.43c-2.61,0-4.77-0.81-6.48-2.43c-1.71-1.62-2.56-3.63-2.56-6.04
				c0-2.31,0.85-4.28,2.56-5.9c1.71-1.62,3.87-2.43,6.48-2.43c2.61,0,4.77,0.81,6.48,2.43c1.71,1.62,2.56,3.59,2.56,5.9
				C579.04,48.18,578.18,50.19,576.47,51.81z"/>
		</g>
		<g>
			<g>
				<path class="st0" d="M331.84,177.88c0,4.74-2.18,10.1-4.49,14.22h-3.38c2.35-4.45,4.37-9.97,4.37-14.22
					c0-3.54-1.48-5.03-3.63-5.03c-2.47,0-4.86,1.86-6.59,4.99l-2.02,14.26h-3.42l4.29-30.37l3.46-0.41l-1.73,12.28
					c1.57-2.23,3.71-3.67,6.47-3.67C329.16,169.93,331.84,173.06,331.84,177.88z"/>
				<path class="st0" d="M353.39,178.21l-1.94,13.85c-0.74,5.36-4,8.86-9.31,8.86c-4.99,0-7.5-3.17-7.5-6.8
					c0-2.47,0.95-4.86,2.1-6.72l2.84,0.95c-0.87,1.65-1.57,3.67-1.57,5.69c0,2.47,1.36,4.08,4.33,4.08c3.46,0,5.23-2.84,5.77-6.68
					l1.85-13.23c0.45-3.42-0.62-5.56-3.75-5.56c-3.46,0-5.4,2.47-5.4,5.69c0,1.15,0.08,1.77,0.21,2.31l-3.09,0.49
					c-0.33-0.91-0.54-1.77-0.54-2.88c0-4.99,3.87-8.41,8.94-8.41C351.45,169.85,354.09,173.27,353.39,178.21z"/>
				<path class="st0" d="M361.67,161.73l3.46-0.41l-3.09,21.8c-0.54,3.92,0.45,6.8,4.25,6.8c4.12,0,6.31-3.38,6.31-7.67
					c0-4.45-3.34-7.34-2.97-11.83H373c-0.21,4.16,3.17,6.64,3.17,11.75c0,5.81-3.75,10.47-10.02,10.47c-5.98,0-8.24-3.92-7.46-9.64
					L361.67,161.73z"/>
				<path class="st0" d="M404.44,187.45c0,7.29-4.95,13.48-13.15,13.48c-6.47,0-10.92-4.33-10.92-11.33c0-4.99,2.39-9.4,5.61-12.61
					l2.06,1.81c-2.72,3.3-4.16,6.64-4.16,10.88c0,5.98,3.34,8.37,7.54,8.37c6.84,0,9.52-5.77,9.52-10.67c0-3.79-1.36-6.14-4.33-8.16
					c-2.23,1.98-3.59,4.25-4.25,8.16l-3.09-0.33c0.49-3.92,2.35-7.09,4.99-9.4c-2.8-1.98-4.08-3.63-4.08-6.02
					c0-3.92,3.17-6.76,7.34-6.76c3.67,0,6.14,2.23,6.14,5.28c0,3.17-2.06,5.07-4.82,7.25C402.22,179.7,404.44,182.38,404.44,187.45z
					 M393.31,171.45c0,1.77,0.91,2.93,3.17,4.45c2.47-1.9,3.87-3.5,3.87-5.77c0-1.69-1.07-2.84-2.97-2.84
					C394.8,167.29,393.31,169.19,393.31,171.45z"/>
				<path class="st0" d="M410.54,184.11c0-7.13,2.43-14.18,9.27-14.18c3.09,0,4.7,1.65,4.86,4.82c0.87-3.38,3.09-4.82,6.06-4.82
					c3.63,0,6.47,2.35,6.47,7.71c0,5.07-2.02,10.18-4.41,14.47h-3.42c2.47-4.82,4.41-9.85,4.41-14.55c0-3.83-1.65-4.82-3.42-4.82
					c-2.27,0-3.96,1.48-4.49,5.15l-0.99,7.13l-3.34,0.37l1.07-7.75c0.41-3.17-0.25-4.9-2.8-4.9c-4.57,0-5.85,6.31-5.85,11.46
					c0,2.64,0.33,4.99,0.99,7.91h-3.3C411.07,189.92,410.54,187.28,410.54,184.11z"/>
				<path class="st0" d="M461.02,177.88c0,4.74-2.18,10.1-4.49,14.22h-3.38c2.35-4.45,4.37-9.97,4.37-14.22
					c0-3.54-1.48-5.03-3.63-5.03c-2.47,0-4.86,1.86-6.59,4.99l-2.02,14.26h-3.42l4.29-30.37l3.46-0.41l-1.73,12.28
					c1.57-2.23,3.71-3.67,6.47-3.67C458.34,169.93,461.02,173.06,461.02,177.88z"/>
				<path class="st0" d="M481.99,183.74c0,5.15-3.54,8.9-9.44,8.9c-4.82,0-7.46-2.8-7.46-6.35c0-2.02,0.78-4.08,1.73-5.56l2.76,0.95
					c-0.66,1.24-1.15,2.97-1.15,4.49c0,2.35,1.4,3.71,4.33,3.71c3.46,0,5.65-2.51,5.65-6.14c0-4.9-4.9-7.13-4.9-12.08
					c0-0.49,0.04-0.91,0.12-1.24h3.34c-0.04,0.37-0.04,0.7-0.04,1.11C476.92,175.37,481.99,178.09,481.99,183.74z"/>
				<path class="st0" d="M506.01,178.46c0,7.54-3.63,14.18-10.59,14.18c-5.98,0-8.16-4.2-7.29-10.51l2.1-14.88
					c0.58-4.16,3.42-6.1,7.29-6.1c2.68,0,4.29,0.58,5.94,0.58c0.91,0,1.81-0.12,3.09-0.58l0.25,2.56c-1.32,0.58-2.39,0.7-3.5,0.7
					c-2.18,0-3.54-0.54-5.65-0.54c-2.39,0-3.71,1.28-4.08,3.83l-0.7,4.86c1.69-1.57,3.79-2.72,6.39-2.72
					C503.79,169.85,506.01,173.31,506.01,178.46z M502.43,177.97c0-3.67-1.36-5.32-3.79-5.32c-2.43,0-4.45,1.32-6.22,3.17
					l-0.87,6.22c-0.66,4.62,0,7.83,3.92,7.83C500.45,189.88,502.43,183.57,502.43,177.97z"/>
				<path class="st0" d="M529.58,177.88c0,4.74-2.18,10.1-4.49,14.22h-3.38c2.31-4.45,4.37-9.97,4.37-14.22
					c0-3.54-1.52-5.15-4.16-5.15c-4.99,0-6.72,5.44-6.72,10.92c0,3.05,0.41,5.65,1.07,8.45h-3.34c-0.62-2.23-1.2-4.95-1.2-8.49
					c0-7.62,3.38-13.68,10.34-13.68C526.82,169.93,529.58,173.06,529.58,177.88z"/>
			</g>
		</g>
		<rect x="250.34" y="176.04" class="st0" width="48.99" height="0.81"/>
		<rect x="545.5" y="176.04" class="st0" width="48.99" height="0.81"/>
	</g>
	<g>
		<g>
			<g>
				<path class="st0" d="M3.87,67.44l57.38,26.67L3.87,121.82v-9.04L51.16,89.8c-13.85-6.57-22.62-10.43-27.41-12.1
					c-8.08-2.86-14.71-3.66-19.88-2.42V67.44z"/>
			</g>
		</g>
		<g>
			<g>
				<path class="st0" d="M87.92,36.73L61.25,94.11L33.2,36.73l9.38,0l23.06,47.11c6.57-13.85,10.35-22.43,12.02-27.23
					c2.86-8.08,3.66-14.71,2.42-19.88H87.92z"/>
			</g>
		</g>
		<g>
			<g>
				<path class="st0" d="M118.63,120.78L61.25,94.11l57.39-28.24v9.76L71.41,98.37c13.85,6.57,22.55,10.48,27.34,12.15
					c8.08,2.86,14.71,3.66,19.88,2.42V120.78z"/>
			</g>
		</g>
		<g>
			<g>
				<path class="st0" d="M34.63,151.6l26.62-57.49l28.24,57.49h-8.92L57.2,103.92c-6.57,13.85-10.64,23-12.31,27.8
					c-2.86,8.08-3.66,14.71-2.42,19.88H34.63z"/>
			</g>
		</g>
	</g>
</g>
</svg>
