<?xml version="1.0" encoding="utf-8"?>
<!-- Generator: Adobe Illustrator 28.2.0, SVG Export Plug-In . SVG Version: 6.00 Build 0)  -->
<svg version="1.1" id="Layer_1" xmlns="http://www.w3.org/2000/svg" xmlns:xlink="http://www.w3.org/1999/xlink" x="0px" y="0px"
	 width="609.59" height="180.73" viewBox="0 0 609.59 180.73" style="enable-background:new 0 0 609.59 180.73;" xml:space="preserve">
<style type="text/css">
	.st0{fill:#FFECD5;}
	.st1{fill:none;stroke:#D5CB9D;stroke-width:1.1072;stroke-miterlimit:10;}
	.st2{clip-path:url(#SVGID_00000129887122194281161190000011283806131583436952_);}
	.st3{fill:#98A869;}
</style>
<g>
	<g>
		<g>
			<path class="st0" d="M264.37,176.06c-0.23-0.22-0.32-0.54-0.26-0.98l5.47-31.02c0.09-0.53,0.31-0.94,0.65-1.24
				c0.34-0.3,0.78-0.44,1.31-0.44h7.1c2.24,0,4.15,0.33,5.72,0.98c1.57,0.65,2.76,1.6,3.55,2.85c0.79,1.25,1.19,2.74,1.19,4.49
				c0,2.03-0.44,3.78-1.31,5.28c-0.87,1.5-2.1,2.69-3.67,3.57c-1.57,0.89-3.39,1.46-5.44,1.71l0.65-1.82l5.75,15.09
				c0.22,0.59,0.23,1.05,0.05,1.38c-0.19,0.33-0.55,0.49-1.07,0.49h-0.23c-0.5,0-0.94-0.23-1.33-0.68c-0.39-0.45-0.72-1-1-1.64
				c-0.28-0.64-0.62-1.55-1.03-2.73l-3.97-10.98l1.03,1.17h-8.6l0.42-2.34h7.24c2.96,0,5.26-0.71,6.89-2.13
				c1.64-1.42,2.45-3.45,2.45-6.1c0-2.06-0.65-3.6-1.96-4.63c-1.31-1.03-3.27-1.54-5.89-1.54h-6.35l1.03-1.03l-5.51,31.4
				c-0.06,0.44-0.24,0.75-0.54,0.93c-0.3,0.19-0.66,0.28-1.1,0.28h-0.23C264.94,176.39,264.61,176.28,264.37,176.06z"/>
			<path class="st0" d="M296.31,175.5c-1.46-0.84-2.58-2.04-3.34-3.6c-0.76-1.56-1.14-3.41-1.14-5.56c0-2.52,0.48-4.91,1.45-7.17
				c0.97-2.26,2.38-4.1,4.25-5.51c1.87-1.42,4.11-2.13,6.73-2.13c1.74,0,3.29,0.28,4.63,0.84c1.34,0.56,2.39,1.36,3.15,2.38
				c0.76,1.03,1.15,2.2,1.15,3.5c0,2.24-0.91,3.85-2.73,4.81c-1.82,0.97-4.31,1.45-7.45,1.45h-8.74l0.28-2.24h8.27
				c2.46,0,4.32-0.3,5.58-0.89c1.26-0.59,1.89-1.65,1.89-3.18c0-1.31-0.54-2.37-1.61-3.2c-1.07-0.82-2.56-1.24-4.46-1.24
				c-2.03,0-3.75,0.6-5.16,1.8c-1.42,1.2-2.48,2.74-3.18,4.63c-0.7,1.88-1.05,3.85-1.05,5.91c0,2.68,0.64,4.7,1.92,6.07
				c1.28,1.37,3.16,2.06,5.65,2.06c0.93,0,1.95-0.16,3.06-0.47c1.11-0.31,2.17-0.7,3.2-1.17c0.34-0.16,0.65-0.19,0.93-0.12
				c0.28,0.08,0.5,0.26,0.65,0.54c0.16,0.28,0.19,0.56,0.09,0.84c-0.09,0.28-0.31,0.53-0.65,0.75c-1.03,0.65-2.24,1.18-3.62,1.57
				c-1.39,0.39-2.84,0.58-4.37,0.58C299.56,176.76,297.77,176.34,296.31,175.5z"/>
			<path class="st0" d="M319.67,176.27c-1.25-0.33-2.24-0.79-2.99-1.38c-0.31-0.25-0.51-0.51-0.58-0.77
				c-0.08-0.26-0.04-0.54,0.12-0.82c0.16-0.28,0.37-0.44,0.65-0.47c0.28-0.03,0.59,0.03,0.93,0.19c0.28,0.12,0.54,0.25,0.79,0.37
				c0.81,0.37,1.62,0.65,2.43,0.82c0.81,0.17,1.74,0.26,2.8,0.26c1.65,0,3.02-0.45,4.11-1.36c1.09-0.9,1.64-2.04,1.64-3.41
				c0-0.81-0.2-1.49-0.61-2.03c-0.41-0.54-0.9-0.98-1.5-1.31c-0.59-0.33-1.42-0.71-2.48-1.14l-0.79-0.33
				c-1.21-0.5-2.22-0.99-3.01-1.47c-0.79-0.48-1.45-1.15-1.96-1.99c-0.51-0.84-0.77-1.93-0.77-3.27c0-1.31,0.35-2.47,1.05-3.48
				c0.7-1.01,1.64-1.79,2.83-2.34c1.18-0.54,2.51-0.82,3.97-0.82c1.43,0,2.75,0.16,3.95,0.49c1.2,0.33,2.14,0.76,2.83,1.28
				c0.34,0.25,0.55,0.51,0.63,0.77c0.08,0.26,0.02,0.54-0.16,0.82c-0.19,0.28-0.41,0.44-0.68,0.47c-0.27,0.03-0.57-0.03-0.91-0.19
				c-0.13-0.06-0.27-0.12-0.42-0.19c-0.78-0.37-1.58-0.66-2.41-0.86c-0.83-0.2-1.72-0.3-2.69-0.3c-1.5,0-2.73,0.39-3.71,1.17
				c-0.98,0.78-1.47,1.78-1.47,2.99c0,0.81,0.17,1.48,0.51,2.01c0.34,0.53,0.79,0.95,1.33,1.26c0.54,0.31,1.3,0.67,2.27,1.07
				l0.79,0.33c1.31,0.53,2.38,1.04,3.22,1.54c0.84,0.5,1.55,1.19,2.13,2.08c0.58,0.89,0.86,2,0.86,3.34c0,1.4-0.37,2.65-1.12,3.74
				c-0.75,1.09-1.76,1.93-3.04,2.52c-1.28,0.59-2.71,0.89-4.3,0.89C322.33,176.76,320.91,176.6,319.67,176.27z"/>
			<path class="st0" d="M340.74,174.84c-0.78-1.28-0.98-2.97-0.61-5.09l2.9-16.54l0.84,1.03h-3.83c-0.41,0-0.69-0.09-0.86-0.28
				c-0.17-0.19-0.23-0.44-0.16-0.75c0.06-0.31,0.18-0.56,0.35-0.75c0.17-0.19,0.4-0.3,0.68-0.33c1.09-0.06,1.89-0.22,2.41-0.47
				c0.51-0.25,0.93-0.76,1.26-1.52c0.33-0.76,0.68-2,1.05-3.71c0.09-0.37,0.26-0.65,0.49-0.82c0.23-0.17,0.52-0.26,0.86-0.26h0.14
				c0.34,0,0.6,0.09,0.77,0.28c0.17,0.19,0.23,0.45,0.16,0.79l-1.07,6.21l-1.03-0.75h7.24c0.4,0,0.69,0.1,0.86,0.3
				c0.17,0.2,0.23,0.49,0.16,0.86c-0.09,0.78-0.56,1.17-1.4,1.17h-7.24l1.31-1.03l-2.94,16.73c-0.22,1.25-0.12,2.31,0.3,3.18
				c0.42,0.87,1.35,1.31,2.78,1.31c0.34,0,0.93-0.08,1.78-0.23c0.31-0.06,0.61-0.12,0.89-0.19c0.22-0.03,0.42-0.01,0.61,0.07
				c0.19,0.08,0.33,0.23,0.42,0.44c0.09,0.25,0.1,0.49,0.02,0.72c-0.08,0.23-0.26,0.43-0.54,0.58c-0.53,0.31-1.13,0.55-1.8,0.7
				c-0.67,0.16-1.46,0.23-2.36,0.23C343,176.76,341.52,176.12,340.74,174.84z"/>
			<path class="st0" d="M356.49,175.19c-1.28-1.04-1.92-2.51-1.92-4.42c0-2.4,0.87-4.33,2.62-5.79c1.74-1.46,4.11-2.2,7.1-2.2h6.77
				l-0.37,2.24h-5.98c-2.37,0-4.17,0.48-5.42,1.43c-1.25,0.95-1.87,2.31-1.87,4.09c0,1.34,0.41,2.34,1.24,2.99
				c0.82,0.65,2.02,0.98,3.57,0.98c1.37,0,2.56-0.26,3.57-0.77c1.01-0.51,2.2-1.35,3.57-2.5l-0.56,1.07l2.06-11.63
				c0.37-2.15,0.12-3.81-0.75-4.98c-0.87-1.17-2.59-1.75-5.14-1.75c-0.87,0-1.71,0.12-2.52,0.37c-0.81,0.25-1.71,0.62-2.71,1.12
				c-0.34,0.19-0.65,0.26-0.93,0.21c-0.28-0.05-0.5-0.21-0.65-0.49c-0.16-0.31-0.19-0.61-0.12-0.89c0.08-0.28,0.29-0.53,0.63-0.75
				c1.03-0.68,2.12-1.19,3.27-1.52c1.15-0.33,2.4-0.49,3.74-0.49c2.21,0,3.97,0.38,5.28,1.14c1.31,0.76,2.19,1.84,2.64,3.22
				c0.45,1.39,0.52,3.03,0.21,4.93l-2.48,14.34c-0.06,0.41-0.23,0.71-0.51,0.91c-0.28,0.2-0.61,0.3-0.98,0.3c-0.44,0-0.77-0.1-1-0.3
				c-0.23-0.2-0.34-0.51-0.3-0.91l0.28-2.52h1.36c-1.37,1.37-2.73,2.4-4.09,3.08c-1.35,0.68-2.89,1.03-4.6,1.03
				C359.43,176.76,357.76,176.24,356.49,175.19z"/>
			<path class="st0" d="M381.27,174.07c-1.07-1.79-1.36-4.1-0.86-6.94l2.48-14.02c0.09-0.4,0.28-0.71,0.56-0.91
				c0.28-0.2,0.62-0.3,1.03-0.3h0.28c0.4,0,0.72,0.1,0.93,0.3c0.22,0.2,0.28,0.51,0.19,0.91l-2.48,13.92
				c-0.37,2.15-0.23,3.89,0.44,5.23c0.67,1.34,2.17,2.01,4.51,2.01c1.31,0,2.55-0.3,3.71-0.89c1.17-0.59,2.36-1.42,3.57-2.48
				l-0.65,1.07l3.32-18.88c0.06-0.4,0.23-0.71,0.51-0.91c0.28-0.2,0.62-0.3,1.03-0.3h0.33c0.4,0,0.71,0.09,0.91,0.28
				c0.2,0.19,0.27,0.5,0.21,0.93l-3.88,22.05c-0.09,0.41-0.28,0.71-0.56,0.91c-0.28,0.2-0.61,0.3-0.98,0.3h-0.23
				c-0.34,0-0.62-0.1-0.84-0.3c-0.22-0.2-0.28-0.51-0.19-0.91l0.47-2.8l1.31-0.09c-1.4,1.4-2.82,2.5-4.25,3.29
				c-1.43,0.79-3.02,1.19-4.77,1.19C384.38,176.76,382.35,175.86,381.27,174.07z"/>
			<path class="st0" d="M405.66,176.08c-0.2-0.2-0.27-0.51-0.21-0.91l3.88-22.05c0.06-0.4,0.24-0.71,0.54-0.91
				c0.3-0.2,0.63-0.3,1-0.3h0.23c0.37,0,0.65,0.1,0.84,0.3c0.19,0.2,0.25,0.51,0.19,0.91l-1.12,6.49l-0.51-0.37
				c0.53-1.5,1.28-2.82,2.24-3.97c0.97-1.15,2.06-2.03,3.29-2.64c1.23-0.61,2.51-0.88,3.85-0.82c0.4,0.03,0.69,0.16,0.86,0.37
				c0.17,0.22,0.23,0.55,0.16,0.98c-0.09,0.5-0.26,0.86-0.51,1.07c-0.25,0.22-0.61,0.33-1.07,0.33c-1.43,0-2.76,0.34-3.97,1
				c-1.21,0.67-2.24,1.63-3.06,2.87c-0.83,1.25-1.38,2.69-1.66,4.35l-2.2,12.38c-0.06,0.41-0.23,0.71-0.51,0.91
				c-0.28,0.2-0.62,0.3-1.03,0.3h-0.33C406.17,176.39,405.86,176.29,405.66,176.08z"/>
			<path class="st0" d="M422.83,175.19c-1.28-1.04-1.92-2.51-1.92-4.42c0-2.4,0.87-4.33,2.62-5.79c1.74-1.46,4.11-2.2,7.1-2.2h6.77
				l-0.37,2.24h-5.98c-2.37,0-4.17,0.48-5.42,1.43c-1.25,0.95-1.87,2.31-1.87,4.09c0,1.34,0.41,2.34,1.24,2.99
				c0.82,0.65,2.02,0.98,3.57,0.98c1.37,0,2.56-0.26,3.57-0.77c1.01-0.51,2.2-1.35,3.57-2.5l-0.56,1.07l2.06-11.63
				c0.37-2.15,0.12-3.81-0.75-4.98c-0.87-1.17-2.59-1.75-5.14-1.75c-0.87,0-1.71,0.12-2.52,0.37c-0.81,0.25-1.71,0.62-2.71,1.12
				c-0.34,0.19-0.65,0.26-0.93,0.21c-0.28-0.05-0.5-0.21-0.65-0.49c-0.16-0.31-0.2-0.61-0.12-0.89c0.08-0.28,0.29-0.53,0.63-0.75
				c1.03-0.68,2.12-1.19,3.27-1.52c1.15-0.33,2.4-0.49,3.74-0.49c2.21,0,3.97,0.38,5.28,1.14c1.31,0.76,2.19,1.84,2.64,3.22
				c0.45,1.39,0.52,3.03,0.21,4.93l-2.48,14.34c-0.06,0.41-0.23,0.71-0.51,0.91c-0.28,0.2-0.61,0.3-0.98,0.3c-0.44,0-0.77-0.1-1-0.3
				c-0.23-0.2-0.34-0.51-0.3-0.91l0.28-2.52h1.36c-1.37,1.37-2.73,2.4-4.09,3.08c-1.35,0.68-2.89,1.03-4.6,1.03
				C425.78,176.76,424.11,176.24,422.83,175.19z"/>
			<path class="st0" d="M445.75,176.08c-0.2-0.2-0.27-0.51-0.21-0.91l3.88-22.05c0.09-0.4,0.28-0.71,0.56-0.91
				c0.28-0.2,0.61-0.3,0.98-0.3h0.23c0.37,0,0.66,0.1,0.86,0.3c0.2,0.2,0.26,0.51,0.16,0.91l-0.47,2.76l-1.31,0.09
				c1.37-1.4,2.78-2.49,4.23-3.27c1.45-0.78,3.04-1.17,4.79-1.17c2.99,0,5.03,0.9,6.12,2.69c1.09,1.79,1.37,4.09,0.84,6.89
				l-2.48,14.06c-0.09,0.41-0.28,0.71-0.56,0.91c-0.28,0.2-0.62,0.3-1.03,0.3h-0.28c-0.4,0-0.72-0.1-0.93-0.3
				c-0.22-0.2-0.28-0.51-0.19-0.91l2.48-13.97c0.37-2.12,0.23-3.85-0.44-5.19c-0.67-1.34-2.17-2.01-4.51-2.01
				c-1.34,0-2.59,0.3-3.74,0.89c-1.15,0.59-2.34,1.42-3.55,2.48l0.65-1.07l-3.32,18.88c-0.06,0.41-0.23,0.71-0.51,0.91
				c-0.28,0.2-0.62,0.3-1.03,0.3h-0.33C446.26,176.39,445.95,176.29,445.75,176.08z"/>
			<path class="st0" d="M474.27,174.84c-0.78-1.28-0.98-2.97-0.61-5.09l2.9-16.54l0.84,1.03h-3.83c-0.41,0-0.69-0.09-0.86-0.28
				c-0.17-0.19-0.23-0.44-0.16-0.75c0.06-0.31,0.18-0.56,0.35-0.75c0.17-0.19,0.4-0.3,0.68-0.33c1.09-0.06,1.89-0.22,2.41-0.47
				c0.51-0.25,0.93-0.76,1.26-1.52c0.33-0.76,0.68-2,1.05-3.71c0.09-0.37,0.26-0.65,0.49-0.82c0.23-0.17,0.52-0.26,0.86-0.26h0.14
				c0.34,0,0.6,0.09,0.77,0.28c0.17,0.19,0.23,0.45,0.16,0.79l-1.07,6.21l-1.03-0.75h7.24c0.4,0,0.69,0.1,0.86,0.3
				c0.17,0.2,0.23,0.49,0.16,0.86c-0.09,0.78-0.56,1.17-1.4,1.17h-7.24l1.31-1.03l-2.94,16.73c-0.22,1.25-0.12,2.31,0.3,3.18
				c0.42,0.87,1.35,1.31,2.78,1.31c0.34,0,0.93-0.08,1.78-0.23c0.31-0.06,0.61-0.12,0.89-0.19c0.22-0.03,0.42-0.01,0.61,0.07
				c0.19,0.08,0.33,0.23,0.42,0.44c0.09,0.25,0.1,0.49,0.02,0.72c-0.08,0.23-0.26,0.43-0.54,0.58c-0.53,0.31-1.13,0.55-1.8,0.7
				c-0.67,0.16-1.46,0.23-2.36,0.23C476.53,176.76,475.05,176.12,474.27,174.84z"/>
		</g>
		<rect x="158.5" y="159.56" class="st0" width="83.58" height="0.81"/>
		<rect x="505.5" y="159.56" class="st0" width="83.58" height="0.81"/>
		<g>
			<path class="st0" d="M250.65,3.97L196.64,119.2L142.9,3.97h16.86l45.53,95.92c13.18-27.76,21.44-46.44,24.79-56.06
				c5.72-16.2,7.34-29.49,4.86-39.86H250.65z"/>
			<path class="st0" d="M318.22,97.94c-0.11,6.91,0.78,11.83,2.67,14.74c1.89,2.92,6.02,4.48,12.39,4.7v0.32
				c-10.8,1.94-18.74,1.73-23.82-0.65c-5.08-2.38-7.83-7.94-8.26-16.69c-1.08,5.4-4.11,9.83-9.07,13.29
				c-4.97,3.46-11.72,5.18-20.25,5.18c-21.71,0-32.67-7.24-32.89-21.71c0.11-12.96,11.67-20.47,34.67-22.52
				c2.81-0.21,7.29-0.62,13.45-1.21c6.16-0.59,10.86-1.05,14.1-1.38V61.32c0-14.04-7.56-21.06-22.68-21.06
				c-4.75,0-9.05,0.89-12.88,2.67c-3.84,1.78-6.91,4.16-9.23,7.13c-2.32,2.97-4.13,5.97-5.43,8.99c-1.3,3.03-2.22,6.05-2.75,9.07
				h-0.49c-2.05-2.48-3.27-5.05-3.65-7.7c-0.38-2.65,0.16-5.21,1.62-7.7c1.46-2.48,3.56-4.7,6.32-6.64c2.75-1.94,6.45-3.51,11.1-4.7
				c4.64-1.19,9.83-1.78,15.55-1.78c12.96,0,22.79,2.24,29.49,6.72c6.7,4.48,10.05,11.05,10.05,19.69V97.94z M277.71,117.06
				c6.26,0,11.75-1.94,16.45-5.83c4.7-3.89,7.05-9.02,7.05-15.39V72.5c-4.32,0.54-11.56,1.24-21.71,2.11
				c-15.23,1.51-22.85,8.91-22.85,22.2c0,5.83,1.67,10.67,5.02,14.5C265.02,115.14,270.37,117.06,277.71,117.06z"/>
			<path class="st0" d="M383.51,39.61c7.02,0,12.42,1.81,16.2,5.43c3.78,3.62,5.59,7.94,5.43,12.96c-0.16,5.02-1.97,9.64-5.43,13.85
				h-0.49c-0.11-3.35-0.49-6.61-1.13-9.8c-0.65-3.18-1.62-6.34-2.92-9.48c-1.3-3.13-3.22-5.67-5.75-7.62
				c-2.54-1.94-5.54-2.92-8.99-2.92c-3.89,0-7.37,1.16-10.45,3.48c-3.08,2.32-5.48,5.48-7.21,9.48c-1.73,4-3.08,8.18-4.05,12.56
				c-0.97,4.37-1.57,8.99-1.78,13.85v35.97h-17.01V48.85c6.48-1.19,12.15-3.99,17.01-8.42v35.81c0.65-6.59,1.81-12.45,3.48-17.58
				c1.67-5.13,4.48-9.58,8.42-13.37C372.79,41.5,377.67,39.61,383.51,39.61z"/>
			<path class="st0" d="M490.43,97.94c-0.11,6.91,0.78,11.83,2.67,14.74c1.89,2.92,6.02,4.48,12.39,4.7v0.32
				c-10.8,1.94-18.74,1.73-23.82-0.65c-5.08-2.38-7.83-7.94-8.26-16.69c-1.08,5.4-4.11,9.83-9.07,13.29
				c-4.97,3.46-11.72,5.18-20.25,5.18c-21.71,0-32.67-7.24-32.89-21.71c0.11-12.96,11.67-20.47,34.67-22.52
				c2.81-0.21,7.29-0.62,13.45-1.21c6.16-0.59,10.86-1.05,14.1-1.38V61.32c0-14.04-7.56-21.06-22.68-21.06
				c-4.75,0-9.05,0.89-12.88,2.67c-3.83,1.78-6.91,4.16-9.23,7.13c-2.32,2.97-4.13,5.97-5.43,8.99c-1.3,3.03-2.22,6.05-2.75,9.07
				h-0.49c-2.05-2.48-3.27-5.05-3.65-7.7c-0.38-2.65,0.16-5.21,1.62-7.7c1.46-2.48,3.56-4.7,6.32-6.64c2.75-1.94,6.45-3.51,11.1-4.7
				c4.64-1.19,9.83-1.78,15.55-1.78c12.96,0,22.79,2.24,29.49,6.72c6.7,4.48,10.05,11.05,10.05,19.69V97.94z M449.93,117.06
				c6.26,0,11.75-1.94,16.45-5.83c4.7-3.89,7.05-9.02,7.05-15.39V72.5c-4.32,0.54-11.56,1.24-21.71,2.11
				c-15.23,1.51-22.85,8.91-22.85,22.2c0,5.83,1.67,10.67,5.02,14.5C437.24,115.14,442.58,117.06,449.93,117.06z"/>
			<path class="st0" d="M526.24,118.34l53.47-2.35v2.86h-73.56l52.98-78.05l-51.2,1.68v-2.86l70.16,0.67L526.24,118.34z"/>
			<path class="st0" d="M603.71,27.63c-1.67,1.59-3.79,2.38-6.34,2.38c-2.55,0-4.67-0.79-6.34-2.38c-1.67-1.58-2.51-3.55-2.51-5.91
				c0-2.26,0.84-4.19,2.51-5.77c1.67-1.58,3.78-2.38,6.34-2.38c2.55,0,4.67,0.79,6.34,2.38c1.67,1.59,2.51,3.51,2.51,5.77
				C606.21,24.08,605.38,26.05,603.71,27.63z M588.78,118.84V48.35c6.59-1.22,12.31-4.11,17.17-8.67v79.16H588.78z"/>
		</g>
	</g>
	<g>
		<g>
			<g>
				<path class="st0" d="M4.1,34.68l57.38,26.67L4.1,89.06v-9.04l47.29-22.98c-13.85-6.57-22.62-10.43-27.41-12.1
					C15.9,42.09,9.27,41.28,4.1,42.52V34.68z"/>
			</g>
		</g>
		<g>
			<g>
				<path class="st0" d="M88.15,3.97L61.48,61.35L33.43,3.97l9.38,0l23.06,47.11c6.57-13.85,10.35-22.43,12.02-27.23
					c2.86-8.08,3.66-14.71,2.42-19.88L88.15,3.97z"/>
			</g>
		</g>
		<g>
			<g>
				<path class="st0" d="M118.87,88.02L61.48,61.35l57.39-28.24v9.76L71.64,65.61c13.85,6.57,22.55,10.48,27.34,12.15
					c8.08,2.86,14.71,3.66,19.88,2.42V88.02z"/>
			</g>
		</g>
		<g>
			<g>
				<path class="st0" d="M34.86,118.84l26.62-57.49l28.24,57.49H80.8L57.44,71.16c-6.57,13.85-10.64,23-12.31,27.8
					c-2.86,8.08-3.66,14.71-2.42,19.88H34.86z"/>
			</g>
		</g>
	</g>
</g>
</svg>
