<?xml version="1.0" encoding="utf-8"?>
<!-- Generator: Adobe Illustrator 28.1.0, SVG Export Plug-In . SVG Version: 6.00 Build 0)  -->
<svg version="1.1" id="Layer_1" xmlns="http://www.w3.org/2000/svg" xmlns:xlink="http://www.w3.org/1999/xlink" x="0px" y="0px"
	 viewBox="0 0 66.4 105.2" style="enable-background:new 0 0 66.4 105.2;" xml:space="preserve">
<style type="text/css">
	.st0{fill:#BD9E44;}
</style>
<g>
	<path class="st0" d="M37.4,45c0-6.6-5.4-11.6-11.2-13.6c0.3,0.4,0.6,0.8,0.9,1.2V8c0-1.6,0.2-3.3-0.1-4.8c-0.6-3.8-5-3-7.8-3
		c-2.1,0-5.4-0.6-7.3,0.7c-1.8,1.3-1.5,3.4-1.5,5.2v26.4c0.3-0.4,0.6-0.8,0.9-1.2c-5.4,1.8-9.9,5.8-11,11.6
		c-0.3,1.6-0.3,3.1-0.3,4.7v27.8c0,7.3-0.2,14.6,0,21.8c0.2,5.1,4.2,7.9,8.9,7.9h14.3c4.8,0,10.5,0.8,13.2-4.2
		c1.1-2.2,0.9-4.7,0.9-7.1v-6.8c0-1.6-2.5-1.6-2.5,0c0,3.4,0.2,6.9,0,10.3c-0.2,3.2-2.5,5.2-5.6,5.3c-1.4,0.1-2.8,0-4.2,0H11.1
		c-1,0-2.1,0.1-3.2,0c-3.1-0.2-5.2-2.4-5.3-5.4c-0.3-6.4,0-12.9,0-19.3V50.4c0-1.8-0.1-3.7,0-5.5c0.3-5.5,4.5-9.5,9.4-11.2
		c0.5-0.2,0.9-0.6,0.9-1.2V10.1c0-1.9-0.3-4,0-5.9c0.4-2.3,3.7-1.6,5.4-1.6c1.5,0,5.6-0.8,6.2,1.1c0.4,1.2,0,3.1,0,4.4v24.4
		c0,0.6,0.4,1,0.9,1.2c4.8,1.7,9.4,5.8,9.4,11.3C34.9,46.5,37.4,46.6,37.4,45"/>
	<path class="st0" d="M0.2,45v43.2c0,5.4-1.5,13.6,4.6,16.3c2.8,1.2,6.6,0.7,9.6,0.7h12.9c1.4,0,2.9,0.1,4.3-0.3
		c3.1-0.8,5.4-3.5,5.8-6.7c0.4-3.6,0.1-7.5,0.1-11.1c0-1.6-2.5-1.6-2.5,0c0,3.3,0,6.5,0,9.8c0,2.6-1.3,5-4,5.6
		c-1,0.3-2.1,0.2-3.1,0.2H15.7c-2.7,0-5.4,0.2-8.1,0c-3.9-0.3-5-3.6-5-6.9V45C2.7,43.4,0.2,43.4,0.2,45"/>
	<path class="st0" d="M1.4,90.2h14.9c1.8,0,4.3,0.4,5.7-0.8c1.3-1.2,1.2-2.8,1.2-4.4V67.7c0-4.3,0.3-8.7,0-12.9
		c-0.2-3.4-3.2-3.4-5.8-3.4H8.9c-1.6,0-1.6,2.5,0,2.5h6.5c1.3,0,4.9-0.7,5.4,1c0.3,1.1,0,2.8,0,4V83c0,1.1,0.3,2.7,0,3.7
		c-0.5,1.5-2.9,1-4.1,1H1.4C-0.2,87.7-0.2,90.2,1.4,90.2"/>
	<path class="st0" d="M25.8,19.1h-7c-1.6,0-1.6,2.5,0,2.5h7C27.4,21.5,27.4,19.1,25.8,19.1"/>
	<path class="st0" d="M34.5,50.4c-2.9,5.9-5.5,13-4.6,19.7c0.7,5.6,4,10.6,8.9,13.5c10.4,6.2,24.4,0.3,27.2-11.5
		c1.7-7.2-1.1-15.3-4.3-21.7c-0.2-0.4-0.7-0.6-1.1-0.6h-25c-1.6,0-1.6,2.5,0,2.5h25c-0.4-0.2-0.7-0.4-1.1-0.6
		c2.5,5.1,4.7,11.2,4.4,17c-0.3,5.1-3.1,9.9-7.5,12.6c-9.3,5.7-21.8,0.2-23.9-10.5c-1.3-6.4,1.4-13.6,4.1-19.2
		C37.4,50.2,35.2,49,34.5,50.4"/>
	<path class="st0" d="M46.9,84.9v6c0,1.6-0.5,4.3,0.4,5.7c1,1.4,2.7,2.7,4,3.9c1.4,1.4,2.8,2.8,4.2,4.2c0.3-0.7,0.6-1.4,0.9-2.1h-18
		c0.3,0.7,0.6,1.4,0.9,2.1c1.9-1.5,3.8-3.1,5.8-4.6c1.2-1-0.5-2.7-1.8-1.8c-1.9,1.5-3.8,3.1-5.8,4.6c-0.9,0.7-0.1,2.1,0.9,2.1h18
		c1.1,0,1.6-1.3,0.9-2.1l-3.8-3.8c-0.4-0.4-3.9-4.5-4.3-4.3c0.8-0.3,0,1.3,0.3,0.5c0.1-0.3,0-0.8,0-1.1v-9.4
		C49.3,83.3,46.9,83.3,46.9,84.9"/>
	<path class="st0" d="M37.8,69.1h27.4c1.6,0,1.6-2.5,0-2.5H37.8C36.2,66.6,36.2,69.1,37.8,69.1"/>
</g>
</svg>
