<?xml version="1.0" encoding="utf-8"?>
<!-- Generator: Adobe Illustrator 28.1.0, SVG Export Plug-In . SVG Version: 6.00 Build 0)  -->
<svg version="1.1" id="Layer_1" xmlns="http://www.w3.org/2000/svg" xmlns:xlink="http://www.w3.org/1999/xlink" x="0px" y="0px"
	 viewBox="0 0 107.5 104.8" style="enable-background:new 0 0 107.5 104.8;" xml:space="preserve">
<style type="text/css">
	.st0{fill:#BD9E44;}
</style>
<g>
	<path class="st0" d="M90,43.4h-7.4c-2.5,0-5.9,0.5-8.3-0.4c-2.3-0.9-4-3.6-5.5-5.5c-2.2-2.6-4.3-5.2-6.5-7.8c-1.6-1.9-3-4-5.8-4.1
		c-2.5-0.1-4.1,1.6-5.7,3.2c-4.3,4.3-8.7,8.7-13.1,13.1c-2,2-3.6,4-3.9,6.8c-0.4,3.5,1.2,6.1,3.4,8.6c2.2,2.4,4.3,4.8,6.5,7.2
		c2.2,2.4,4.6,4.5,4.7,7.9c0.2,4.7-0.3,9.5,0,14.2c0.3,4.3,5.3,6.7,8.8,4c2.3-1.8,2.1-4.3,2.1-6.9v-10c0-2.2,0.2-4.5-0.1-6.7
		c-0.3-2.7-2-5-3.2-7.4c-1.6-2.9-3.2-5.7-4.8-8.6c-0.3-0.6-0.7-1.2-1-1.8c-0.1,0.5-0.1,1-0.2,1.5c3.2-3.6,6.5-7.1,9.7-10.7
		c1.1-1.2-0.7-3-1.8-1.8c-3.2,3.6-6.5,7.1-9.7,10.7c-0.4,0.4-0.5,1-0.2,1.5c2.4,4.2,4.7,8.5,7.1,12.7c1.1,1.9,1.7,3.7,1.7,5.9v8.4
		c0,2.7,0,5.3,0,7.9c0,1.3-0.2,2.6-1.5,3.3c-2.1,1.2-4.3-0.4-4.5-2.7c-0.3-4.6,0.2-9.2,0-13.8c-0.1-3.2-1.6-5.5-3.7-7.8l-6.1-6.7
		c-1.5-1.6-3.5-3.3-4.3-5.3c-1.5-3.3,0-6.3,2.4-8.6c4-4,8-8,12-12c1.1-1.1,2.3-2.7,3.7-3.5c2.6-1.5,4.5,1.7,5.9,3.4
		c2.3,2.7,4.5,5.4,6.8,8.1c1.8,2.1,3.3,4.4,6.1,5.4c2.6,0.9,5.9,0.5,8.6,0.5H90C91.6,46,91.6,43.5,90,43.4"/>
	<path class="st0" d="M81.7,19.8c-0.2-5-4.1-9.3-9.3-9.3s-9.3,4.2-9.3,9.3s4.2,9.3,9.3,9.3C77.6,29,81.5,24.8,81.7,19.8
		c0.1-1.6-2.4-1.6-2.5,0c-0.1,3.7-3,6.8-6.8,6.8s-6.8-3.1-6.8-6.8s2.9-6.6,6.5-6.7c3.9-0.2,6.9,3,7,6.7
		C79.2,21.4,81.8,21.4,81.7,19.8"/>
	<path class="st0" d="M90,52.8c-3,0-6-0.1-8.9,0c-3.8,0.1-6.2,3.5-5,7.1C78.2,66,80.9,72,83.3,78c0.9,2.3,1.9,4.7,2.8,7
		c0.6,1.5,3,0.8,2.4-0.7c-1.9-4.9-3.9-9.7-5.8-14.6c-1.2-2.9-2.3-5.8-3.5-8.7c-0.9-2.2-2-5.4,1.7-5.8c3-0.3,6.1,0,9.1,0
		C91.6,55.3,91.6,52.8,90,52.8"/>
	<path class="st0" d="M107.5,84.7c-0.1-8.4-5.2-15.9-13.1-18.9c-7.9-3-17.2-0.5-22.6,6.1C66.5,78.4,65.7,87.8,70,95
		c4.3,7.2,12.8,11,21.1,9.5C100.6,102.7,107.3,94.2,107.5,84.7c0-1.6-2.5-1.6-2.5,0c-0.1,7.4-4.7,14.2-11.8,16.7
		c-6.9,2.4-14.7,0.2-19.4-5.4c-4.7-5.7-5.3-14-1.6-20.3c3.8-6.3,11.3-9.7,18.6-8.2c8.3,1.7,14.1,8.9,14.2,17.3
		C105,86.3,107.5,86.3,107.5,84.7"/>
	<path class="st0" d="M40.3,84.7c-0.1-8.4-5.2-15.9-13.1-18.9c-7.9-3-17.2-0.5-22.6,6.1C-0.8,78.4-1.5,87.8,2.8,95
		c4.3,7.2,12.8,11,21.1,9.5C33.4,102.7,40.1,94.2,40.3,84.7c0-1.6-2.5-1.6-2.5,0C37.6,92.1,33,98.9,26,101.4
		c-6.9,2.4-14.7,0.2-19.4-5.4C1.8,90.3,1.2,82,5,75.6c3.8-6.3,11.3-9.7,18.5-8.2c8.3,1.7,14.1,8.9,14.2,17.3
		C37.8,86.3,40.3,86.3,40.3,84.7"/>
	<path class="st0" d="M81.4,84.7c0.2,4.2,4.4,7.2,8.4,5.4c4-1.8,4.6-7.2,1.4-10c-1.2-1.1-3,0.7-1.8,1.8c1.9,1.7,1.9,4.8-0.6,5.9
		c-2.3,1.1-4.8-0.7-4.9-3.1C83.8,83.1,81.3,83.1,81.4,84.7"/>
	<path class="st0" d="M26.1,84.7c-0.2-3.2-2.6-6-6-6s-6,2.7-6,6s2.6,5.8,5.7,5.9C23.3,90.8,25.9,88.1,26.1,84.7
		c0.1-1.6-2.4-1.6-2.5,0c-0.2,4.4-6.9,4.5-6.9,0s6.7-4.4,6.9,0C23.7,86.3,26.2,86.3,26.1,84.7"/>
	<path class="st0" d="M53.4,20.2C46.3,13.6,39.2,7,32,0.4c-0.5-0.4-1.3-0.5-1.8,0L7.9,24.6c-0.4,0.5-0.5,1.3,0,1.8
		c7.1,6.6,14.3,13.2,21.4,19.8c0.5,0.5,1.3,0.5,1.8,0C38.5,38.1,46,30,53.4,21.9c1.1-1.2-0.7-3-1.8-1.8
		c-7.5,8.1-14.9,16.1-22.4,24.2h1.8c-7.1-6.6-14.3-13.2-21.4-19.8v1.8C17.1,18.3,24.6,10.2,32,2.1h-1.8c7.1,6.6,14.3,13.2,21.4,19.8
		C52.9,23,54.6,21.3,53.4,20.2"/>
	<path class="st0" d="M65.7,17.3c6.7,2.4,13.4,4.8,20.1,7.2c1.5,0.5,2.2-1.9,0.7-2.4c-6.7-2.4-13.4-4.8-20.1-7.2
		C64.9,14.3,64.2,16.7,65.7,17.3"/>
</g>
</svg>
