<?xml version="1.0" encoding="utf-8"?>
<!-- Generator: Adobe Illustrator 28.1.0, SVG Export Plug-In . SVG Version: 6.00 Build 0)  -->
<svg version="1.1" id="Layer_1" xmlns="http://www.w3.org/2000/svg" xmlns:xlink="http://www.w3.org/1999/xlink" x="0px" y="0px"
	 viewBox="0 0 142.9 104.9" style="enable-background:new 0 0 142.9 104.9;" xml:space="preserve">
<style type="text/css">
	.st0{fill:#BD9E44;}
</style>
<g>
	<path class="st0" d="M26.3,59.2c3.9,0.3,7.8,0,11.6-1.1c3.9-1.2,7.4-2.5,11.6-2.5c4,0.1,7.3,1.5,11.1,2.6c3.8,1.1,7.8,1.4,11.7,0.9
		c3.8-0.5,7.1-2,10.8-2.9c3.9-0.9,8-0.8,11.9,0.2c3.5,1,6.7,2.4,10.4,2.7c4,0.4,8.1,0,11.9-1.2c2-0.6,1.2-3.8-0.9-3.2
		c-4.1,1.2-8.4,1.6-12.6,0.8c-3.7-0.6-7-2.4-10.7-3c-3.3-0.5-6.7-0.5-10,0.2c-4.1,0.8-7.6,2.7-11.8,3.1c-4.1,0.4-8.2-0.2-12.1-1.6
		c-3.3-1.2-6.7-2-10.2-2s-6.9,0.8-10.2,2c-4,1.5-8.2,2-12.4,1.6C24.2,55.8,24.2,59,26.3,59.2"/>
	<path class="st0" d="M26.3,71.7c3.9,0.3,7.8,0,11.6-1.1c3.9-1.2,7.4-2.5,11.6-2.5c4,0.1,7.3,1.5,11.1,2.6c3.8,1.1,7.8,1.4,11.7,0.9
		c3.8-0.4,7.1-2,10.8-2.9c3.9-0.9,8-0.8,11.9,0.2c3.5,1,6.7,2.4,10.4,2.7c4,0.4,8.1,0,11.9-1.2c2-0.6,1.2-3.8-0.9-3.2
		c-4.1,1.2-8.4,1.6-12.6,0.8c-3.7-0.6-7-2.4-10.7-3c-3.3-0.6-6.7-0.5-10,0.2c-4.1,0.8-7.6,2.7-11.8,3.1c-4.1,0.4-8.2-0.2-12.1-1.6
		c-3.3-1.2-6.7-2-10.2-2s-6.9,0.8-10.2,2c-4,1.5-8.2,1.9-12.4,1.6C24.2,68.3,24.2,71.5,26.3,71.7"/>
	<path class="st0" d="M116.9,38.5H26.3c-0.9,0-1.6,0.8-1.6,1.6v37.5c0,2-0.2,4,1.1,5.7c1.4,1.8,3.3,2.1,5.3,2.1h79
		c4,0,8.2-0.4,8.4-5.6c0.5-13.2,0-26.5,0-39.7c0-2.1-3.3-2.1-3.3,0v36c0,1.5,0.4,3.4-0.3,4.8c-0.7,1.6-2.2,1.3-3.6,1.3H34.2
		c-1.2,0-2.6,0.2-3.9,0C28.5,82,28,80.8,28,79.2v-39l-1.6,1.6h90.6C119,41.8,119,38.6,116.9,38.5"/>
	<path class="st0" d="M57,24c-10.5,4.9-21,9.9-31.5,14.8c-1.5,0.7-0.7,3,0.8,3h90.6c1.2,0,1.7-1,1.6-2.1
		c-1.7-11.4-9.3-20.1-19.7-24.8c-3.5-1.6-7.4-3.1-11.2-3.6c-4.1-0.5-8,2-11.6,3.7c-1.9,0.9-0.2,3.7,1.7,2.8
		c3.2-1.5,6.6-3.8,10.2-3.2c3.3,0.6,6.7,1.8,9.7,3.2c9.4,4.4,16.2,12.1,17.7,22.6l1.6-2.1H26.3c0.3,1,0.5,2,0.8,3
		c10.5-4.9,21-9.9,31.5-14.8C60.6,25.9,58.9,23.1,57,24"/>
	<path class="st0" d="M85.7,21.2c8.1,1.7,16.3,5.5,20.6,13c1,1.8,3.9,0.2,2.8-1.7c-4.7-8.2-13.6-12.6-22.5-14.5
		C84.5,17.6,83.6,20.8,85.7,21.2"/>
	<path class="st0" d="M116.4,66.3c6.5,1.8,30.8,9.2,21.1,19.9c-3.4,3.7-8.5,5.9-13.1,7.7c-6.9,2.5-14.1,4.1-21.3,5.3
		c-18.4,3-37.5,3.2-56,1c-7.9-0.9-15.8-2.3-23.4-4.7c-5.5-1.7-11.2-3.7-15.8-7.2c-3.4-2.6-6-6.4-3.3-10.5c1.9-2.8,5-4.7,8-6.2
		c4.5-2.3,9.3-3.9,14.1-5.2c2-0.6,1.2-3.7-0.9-3.1c-8.4,2.3-32.2,9.9-24.3,23.1c2.7,4.4,7.8,7.2,12.4,9.2c7.3,3.2,15.2,5.1,23.1,6.5
		c20.4,3.6,41.7,3.8,62.2,1.1c8.6-1.2,17.2-2.8,25.4-5.8c5.3-1.9,11.1-4.4,15-8.6c3.5-3.7,4.4-8.7,1.4-13
		c-5.1-7.3-15.7-10.3-23.8-12.5C115.3,62.6,114.4,65.8,116.4,66.3"/>
	<path class="st0" d="M81,23.4c-0.2-6.8-5.5-12.5-12.5-12.5S56,16.6,56,23.4s5.7,12.5,12.5,12.5S80.7,30.2,81,23.4
		c0.1-2.1-3.2-2.1-3.3,0c-0.2,5-4.1,9.2-9.2,9.2c-5,0-9.2-4.2-9.2-9.2s4-9,8.8-9.2c5.3-0.2,9.4,4,9.6,9.2C77.8,25.5,81,25.5,81,23.4
		"/>
	<path class="st0" d="M73.6,20c-2,0.6-4.2,0-5.1-2c-0.8-1.9-4-1.1-3.2,0.9c1.5,3.6,5.3,5.6,9.1,4.3C76.4,22.5,75.6,19.3,73.6,20"/>
	<path class="st0" d="M65.1,3c5.8,2.8,5.2,11.2,3.9,16.2c-0.5,2,2.6,2.9,3.2,0.9c1.7-6.4,1.8-16.4-5.4-19.9
		C64.9-0.7,63.2,2.1,65.1,3"/>
</g>
</svg>
