<?xml version="1.0" encoding="utf-8"?>
<!-- Generator: Adobe Illustrator 28.1.0, SVG Export Plug-In . SVG Version: 6.00 Build 0)  -->
<svg version="1.1" id="Layer_1" xmlns="http://www.w3.org/2000/svg" xmlns:xlink="http://www.w3.org/1999/xlink" x="0px" y="0px"
	 viewBox="0 0 147.4 104.4" style="enable-background:new 0 0 147.4 104.4;" xml:space="preserve">
<style type="text/css">
	.st0{fill:#BD9E44;}
</style>
<g>
	<path class="st0" d="M147.4,98.4c-0.1-27.9-0.3-55.8-0.4-83.7c0-3.9,0-7.8-0.1-11.7c0-1.6-1.9-2.2-3-1.2c-2.2,2-3.7,5-4.9,7.6
		c-3.8,8.6-5.2,18.2-5.7,27.5c-0.4,7.4,0.2,15.3,1.9,22.5c0.6,2.4,1.5,4.6,2,7c0.7,3.5,0.3,6.9-0.2,10.4c-0.7,5.5-1.3,11.1-1.4,16.6
		c0,3.7,0.2,8.9,4.5,10.2C143.8,104.8,147.1,102,147.4,98.4c0.1-2.2-3.3-2.2-3.5,0c-0.1,1.3-1.4,2.4-2.8,1.9
		c-1.8-0.6-1.9-3.3-1.9-4.8c-0.2-4.3,0.3-8.6,0.7-12.9c0.5-5.2,1.6-10.4,0.9-15.6c-0.6-4.1-2.2-8-2.9-12.1
		c-2.3-14.2-1.7-30.2,4-43.5c1.1-2.5,2.4-5.4,4.4-7.2c-1-0.4-2-0.8-3-1.2c0.1,27.9,0.3,55.8,0.4,83.7c0,3.9,0,7.8,0.1,11.7
		C143.9,100.7,147.4,100.7,147.4,98.4"/>
	<path class="st0" d="M13,32.7c0.9,19.4,1.8,38.8,2.7,58.2c0.1,3,1.8,9.1-2.7,9.5c-2.2,0.2-2.2,3.7,0,3.5c3.2-0.3,6.4-2.3,6.6-5.9
		c0-0.9-0.1-1.8-0.1-2.7c-0.2-4.8-0.4-9.6-0.7-14.4c-0.6-12.9-1.2-25.8-1.8-38.7c-0.1-3.2-0.3-6.4-0.4-9.6
		C16.4,30.5,12.9,30.4,13,32.7"/>
	<path class="st0" d="M15.2,34.4c4.7-0.3,8.3-3.8,9.1-8.5c0.4-2.2,0-4.5-0.2-6.8c-0.5-5.7-0.9-11.3-1.3-17c-0.2-2.2-3.6-2.2-3.5,0
		c0.4,4.6,0.7,9.3,1.1,13.9c0.4,5,2.4,14.3-5.2,14.8C12.9,31.1,12.9,34.6,15.2,34.4"/>
	<path class="st0" d="M9.4,31c-7.6-0.3-5.8-9.7-5.5-14.7C4.2,11.7,4.5,7,4.7,2.4c0.1-2.2-3.3-2.2-3.5,0c-0.3,5.7-0.7,11.4-1,17
		c-0.1,2.1-0.4,4.2-0.1,6.4c0.7,4.8,4.4,8.5,9.3,8.7C11.7,34.6,11.7,31.1,9.4,31"/>
	<path class="st0" d="M8.1,32.7C7.5,53.2,7,73.6,6.4,94.1c0,1.3-0.2,2.6-0.1,3.9c0.1,3.6,3.2,5.7,6.6,6c2.2,0.2,2.2-3.3,0-3.5
		c-4.3-0.3-3.1-5.1-3-8c0.1-5.1,0.3-10.3,0.4-15.4c0.3-12,0.6-24,1-36c0.1-2.8,0.1-5.6,0.2-8.4C11.6,30.5,8.2,30.5,8.1,32.7"/>
	<path class="st0" d="M7.6,3.1L6.9,24.8c-0.1,2.2,3.4,2.2,3.5,0l0.6-21.6C11.1,0.9,7.6,0.9,7.6,3.1"/>
	<path class="st0" d="M13,3.1c0.4,7.2,0.7,14.4,1.1,21.6c0.1,2.2,3.6,2.2,3.5,0c-0.4-7.2-0.7-14.4-1.1-21.6
		C16.4,0.8,12.9,0.8,13,3.1"/>
	<path class="st0" d="M128.7,52.2c-0.2-21.7-13.7-41.4-34.1-49C74.1-4.5,50.1,2,36.2,18.9C22.3,35.8,20.3,60.2,31.6,79
		c11.2,18.7,33.4,28.6,54.8,24.5C110.8,98.9,128.5,76.9,128.7,52.2c0-2.2-3.5-2.2-3.5,0c-0.2,20.3-13,39-32.2,45.9
		c-19.2,6.8-41,0.9-54.1-14.8c-13.1-15.7-14.8-38.7-4.3-56.2C45.1,9.6,66.2,0.3,86.2,4.4c22.6,4.7,38.8,24.9,39,47.8
		C125.2,54.4,128.7,54.4,128.7,52.2"/>
	<path class="st0" d="M85.8,24.8c-18.4-6-38,7.5-38.3,27C47.2,70.4,65,84.6,83,80.4c10.2-2.4,18.2-10.3,21.2-20.2
		c0.7-2.2-2.7-3.1-3.3-0.9c-4.9,16-24,23.5-38.2,14.4C49,65,47.1,45.2,58.7,33.9c7-6.8,17-8.8,26.2-5.8C87,28.8,87.9,25.4,85.8,24.8
		"/>
</g>
</svg>
