<?xml version="1.0" encoding="utf-8"?>
<!-- Generator: Adobe Illustrator 28.1.0, SVG Export Plug-In . SVG Version: 6.00 Build 0)  -->
<svg version="1.1" id="Layer_1" xmlns="http://www.w3.org/2000/svg" xmlns:xlink="http://www.w3.org/1999/xlink" x="0px" y="0px"
	 viewBox="0 0 110.9 111.2" style="enable-background:new 0 0 110.9 111.2;" xml:space="preserve">
<style type="text/css">
	.st0{fill:#BD9E44;}
</style>
<g>
	<path class="st0" d="M55.9,45.3c4.9,0,9.7,0,14.6,0c2.4,0,4.9,0,7.3,0c2.3,0,4.7-0.2,7.1,0c1,0.1,1.5,0.2,1.8,1.3
		c0.4,1.6,0,3.3,0.2,4.9c0.2,1.6,1.1,3.1,2.8,3.1c1.6,0,2.9-0.8,4.6-0.8c6.7,0.2,11.9,5.6,13.2,11.9c1.4,6.8-2.2,14.1-8.7,16.8
		c-3.9,1.6-8.2,1.2-11.8-0.9c-1.3-0.8-2.8-1.2-3.9,0.2c-1,1.3-1.4,3.1-2.2,4.5c-1.6,2.9-3.7,5.5-6.6,7.2c-3.8,2.2-8.2,1.9-12.5,1.9
		c-4.8,0-9.5,0-14.2,0c-3.5,0-6.9-0.1-10.1-1.9c-6.8-3.9-9.5-12.5-10.9-19.7c-0.9-4.6-1.5-9.2-1.7-13.8c-0.1-2.4-0.2-4.8-0.2-7.2
		c0-2-0.2-4.3,0.2-6.2c0.3-1.1,1-1.3,2-1.4c2.4-0.1,4.8,0,7.2,0c4.8,0,9.7,0,14.5,0C51.1,45.2,53.5,45.2,55.9,45.3c2,0,2-3.1,0-3.1
		c-5.3,0-10.6,0-15.9,0c-2.7,0-5.4,0-8.1,0c-2.1,0-4.4-0.3-6.5,0.2c-3.7,0.8-3.8,4.6-3.8,7.7c-0.1,5.3,0,10.5,0.6,15.8
		c1,8.9,2.7,18.6,8.5,25.8c2.2,2.8,5.1,4.9,8.4,6c4.1,1.4,8.6,0.9,12.9,0.9c5.2,0,10.4,0.2,15.6,0c4.1-0.2,7.9-1.5,11-4.1
		c2.8-2.4,4.8-5.6,6.3-8.9c0.2-0.4,0.5-0.9,0.6-1.3c0.1-0.4,0.4-0.2-0.2-0.2c-0.8,0-0.1,0.2,0,0.3c0.8,0.7,2.2,1.2,3.2,1.6
		c2.1,0.8,4.4,1.1,6.6,0.9c7.7-0.7,14.2-6.8,15.6-14.4c1.3-7.2-2-15.1-8.2-19c-2.9-1.8-6.6-2.9-10-2.4c-0.8,0.1-1.5,0.5-2.3,0.6
		c-0.5,0.1-0.1,0-0.1,0.1c-0.1-0.1-0.1-0.4-0.1-0.5c0-0.5,0-1.1,0-1.6c0.1-1.6,0.1-3.5-0.7-4.9c-1.7-3.2-6.5-2.3-9.4-2.3
		c-5.3,0-10.7,0-16,0h-7.8C53.9,42.1,53.9,45.2,55.9,45.3"/>
	<path class="st0" d="M94.5,78.1c3.8,0,6.8-2.9,7.9-6.4c1.1-3.6,0.1-7.9-2.7-10.4c-2.7-2.4-6.7-2.7-9.6-0.6c-3.2,2.3-4.3,6.3-3.7,10
		C87.1,74.7,90.4,78,94.5,78.1c2,0.1,2-3.1,0-3.1c-5.3-0.1-6.8-7.8-3.3-11.2c1.6-1.6,4.1-1.9,5.9-0.6c2,1.4,2.8,4.1,2.6,6.5
		c-0.3,2.7-2.4,5.3-5.2,5.3C92.5,75,92.5,78.1,94.5,78.1"/>
	<path class="st0" d="M54.7,98.4c14.6,0,29.2,0,43.8,0c1.7,0,3.4,0,5.1,0c0.8,0,1.5,0,2.3,0c0.2,0,0.5-0.1,0.6,0
		c0.6,0.2,0.5,0.9,0.3,1.4c-1.1,2.8-4.5,3.9-7,4.7c-6.5,2-13.3,2.8-20.1,3.3c-14.4,1.1-28.8,1.1-43.3,0.4c-7-0.3-14.1-0.8-21-2.2
		c-3.1-0.7-6.4-1.4-9.3-2.9c-1.3-0.7-2.6-1.6-3.3-2.9c-1.3-2.4,1.6-1.8,3.1-1.8C22.2,98.4,38.5,98.4,54.7,98.4c1.6,0,1.6-2.5,0-2.5
		c-16.2,0-32.3,0-48.5,0c-1.4,0-3.3-0.3-4.6,0.3c-1.3,0.6-1.8,2.1-1.6,3.5c0.4,3.2,3.8,5.2,6.4,6.4c6.8,2.9,14.6,3.7,21.9,4.2
		c16,1.3,32.3,1.3,48.3,0.3c7.7-0.5,15.5-1.2,22.9-3.4c2.7-0.8,5.5-1.7,7.6-3.7c1.8-1.8,3.8-5.8,0.6-7.3c-1.4-0.6-3.3-0.3-4.7-0.3
		c-2.3,0-4.7,0-7,0c-4.6,0-9.2,0-13.8,0c-9.2,0-18.3,0-27.5,0C53.1,95.8,53.1,98.4,54.7,98.4"/>
	<path class="st0" d="M69.6,12.3c-0.1,7.8-8.7,12.3-15.3,8.2c-0.9-0.6-1.8,0.2-1.9,1.1c-0.5,4.3-6.1,5.9-8.8,2.5
		c-2.9-3.7,0.6-8.8,5-7.9c1,0.2,1.8-0.6,1.6-1.6C49,9,52.9,3.1,58.9,2.6C64.6,2,69.6,6.6,69.6,12.3c0,1.6,2.6,1.6,2.5,0
		C72.1,5.1,65.8-0.8,58.5,0.1c-7.4,0.9-12.3,8.1-10.6,15.3c0.5-0.5,1-1,1.6-1.6c-3.2-0.7-6.5,0.5-8.2,3.4c-1.6,2.6-1.4,6.1,0.5,8.5
		c1.9,2.4,5.2,3.5,8.1,2.5c3-0.9,4.9-3.5,5.2-6.6c-0.6,0.4-1.3,0.7-1.9,1.1c4,2.5,9.2,2.7,13.2,0.1c3.7-2.3,5.8-6.2,5.9-10.5
		C72.2,10.7,69.7,10.7,69.6,12.3"/>
	<path class="st0" d="M62.3,33.8c0,0.8-0.2,1.5-0.7,2.2c-0.2,0.3,0.1-0.1-0.1,0.1c-0.1,0.1-0.1,0.2-0.2,0.2
		c-0.1,0.1-0.1,0.1-0.2,0.2c0,0-0.3,0.3-0.1,0.1c-0.2,0.1-0.3,0.2-0.5,0.3c-0.1,0-0.2,0.1-0.2,0.1c-0.1,0.1-0.2,0.1,0,0
		c-0.1,0-0.1,0-0.2,0.1c-1.6,0.5-3.1,0.1-4.2-1.2c0.1,0.1,0,0,0,0c-0.1-0.1-0.2-0.2-0.2-0.3c0-0.1-0.1-0.2-0.1-0.2
		c0,0-0.2-0.4-0.1-0.2c-0.1-0.2-0.2-0.4-0.2-0.6c0-0.1,0-0.2-0.1-0.3c0-0.2,0-0.2,0-0.1c0-0.1,0-0.1,0-0.2c0-0.5,0-0.8,0.1-1.1
		c0-0.2,0.1-0.4,0.2-0.6c0-0.1,0.1-0.3,0.3-0.5c0.2-0.4,0.3-0.5,0.7-0.8c0.2-0.2,0.6-0.5,1-0.6c0,0-0.2,0.1,0.1,0
		c0.1,0,0.2-0.1,0.4-0.1c0.1,0,0.2,0,0.3-0.1c0,0,0.4-0.1,0.2,0s0.3,0,0.2,0c0.1,0,0.2,0,0.3,0s0.2,0,0.3,0c0.3,0,0,0,0.2,0
		c1,0.2,1.5,0.5,2.2,1.2c0.3,0.3-0.1-0.2,0.1,0.1c0.1,0.1,0.1,0.2,0.2,0.3c0.1,0.1,0.1,0.2,0.2,0.3c0.1,0.2,0-0.1,0.1,0.2
		s0.2,0.5,0.2,0.8c0,0,0,0.2,0,0.1C62.3,33.4,62.3,33.6,62.3,33.8c0,1.7,2.5,1.7,2.5,0c0-2.6-1.6-4.9-4.1-5.8
		c-2.3-0.9-5.2-0.1-6.8,1.8c-1.6,2-2,4.9-0.6,7.1c1.3,2.3,4,3.3,6.5,2.9c2.9-0.5,4.9-3.2,5-6C64.8,32.2,62.3,32.2,62.3,33.8"/>
	<path class="st0" d="M65.7,67.5c0,3.7-1.2,8.4-4.7,10.4c-3.2,1.8-6.3-0.6-7.8-3.5c-2-3.8-2.1-8.7-0.6-12.6c1.1-2.9,3.8-6.2,7.3-5.2
		C64.3,57.9,65.7,63.6,65.7,67.5c0,1.6,2.6,1.6,2.5,0c-0.1-4.7-1.8-10.5-6.3-12.8c-4.2-2.1-8.5,0.4-10.7,4.1
		c-2.7,4.6-2.9,10.8-0.8,15.7c1.7,4,5.5,7.7,10.2,6.3c5.5-1.6,7.6-8.2,7.6-13.3C68.3,65.8,65.8,65.8,65.7,67.5"/>
	<path class="st0" d="M28.8,50.1c-0.1,2.7-0.1,5.4,0,8.2c0.2,4.9,0.6,10,2.1,14.8c0.5,1.6,2.9,0.9,2.4-0.7
		c-1.5-4.6-1.9-9.5-2.1-14.4c-0.1-2.6-0.1-5.2,0-7.9C31.4,48.4,28.9,48.5,28.8,50.1"/>
</g>
</svg>
