<?xml version="1.0" encoding="utf-8"?>
<!-- Generator: Adobe Illustrator 28.1.0, SVG Export Plug-In . SVG Version: 6.00 Build 0)  -->
<svg version="1.1" id="Layer_1" xmlns="http://www.w3.org/2000/svg" xmlns:xlink="http://www.w3.org/1999/xlink" x="0px" y="0px"
	 viewBox="0 0 102 101.9" style="enable-background:new 0 0 102 101.9;" xml:space="preserve">
<style type="text/css">
	.st0{fill:#BD9E44;}
</style>
<g>
	<path class="st0" d="M79.4,13.2c-0.1,4.8-5.3,7.5-9.3,5c-0.9-0.6-1.8,0.2-1.9,1.1c-0.3,2.5-3.6,3.2-5,1.2c-1.5-2.1,0.5-4.9,2.9-4.4
		c1,0.2,1.8-0.6,1.6-1.6c-0.8-3.3,1.4-6.7,4.8-7.3C76.1,6.7,79.3,9.6,79.4,13.2c0,1.6,2.6,1.6,2.5,0C81.8,8,77.3,4,72.1,4.8
		c-4.9,0.8-8,5.7-6.9,10.5c0.5-0.5,1-1,1.6-1.6c-2.3-0.5-4.6,0.3-5.8,2.3c-1.2,1.8-1,4.3,0.2,6c1.3,1.7,3.6,2.5,5.7,2
		c2.2-0.6,3.6-2.5,3.9-4.8c-0.6,0.4-1.3,0.7-1.9,1.1c2.7,1.7,6.3,1.8,9.1,0.1c2.5-1.6,4-4.3,4-7.2C82,11.6,79.5,11.6,79.4,13.2"/>
	<path class="st0" d="M74.6,28.7c0,0.1,0,0.2,0,0.3c0,0.3,0-0.1,0-0.1c0,0-0.1,0.4-0.1,0.4c0,0-0.1,0.2-0.1,0.2c0,0,0.2-0.3,0-0.1
		c-0.1,0.1-0.2,0.3-0.3,0.4c-0.2,0.2,0.2-0.1,0,0c-0.1,0-0.1,0.1-0.1,0.1c0,0-0.1,0.1-0.1,0.1c0,0,0,0-0.1,0.1
		c-0.1,0.1-0.1,0.1,0.1,0c0,0.1-0.3,0.2-0.3,0.2c-0.1,0-0.1,0-0.2,0.1c-0.2,0.1,0.3-0.1-0.1,0c-0.1,0-0.3,0.1-0.4,0.1
		c-0.2,0,0,0.1,0,0c0,0-0.2,0-0.2,0c-0.2,0-0.3,0-0.4,0c-0.2,0,0.3,0.1,0,0c-0.1,0-0.2,0-0.2-0.1c-0.1,0-0.2,0-0.2-0.1
		c-0.2-0.1,0.1,0,0.1,0c0,0-0.3-0.2-0.4-0.2c-0.1,0-0.1-0.1-0.2-0.1c-0.2-0.1,0.2,0.2,0,0c0,0-0.4-0.3-0.3-0.4c0,0,0.2,0.2,0.1,0.1
		c-0.1-0.1-0.1-0.1-0.1-0.2c0,0-0.1-0.1-0.1-0.1l0-0.1c-0.1-0.1-0.1-0.1,0,0.1c-0.1,0-0.1-0.3-0.1-0.4c0-0.1,0-0.1,0-0.2
		c-0.1-0.2,0,0.3,0,0c0-0.1,0-0.3,0-0.4c0,0,0-0.1,0-0.1c0-0.1,0-0.1,0,0.1c0,0,0-0.1,0-0.2c0-0.1,0.1-0.3,0.1-0.4
		c0.1-0.3-0.1,0.2,0,0c0-0.1,0.1-0.1,0.1-0.2c0-0.1,0.1-0.1,0.1-0.2c0.1-0.2,0,0,0,0c0,0,0.3-0.3,0.3-0.3c0,0,0.2-0.2,0.1-0.1
		c-0.1,0.1,0,0,0.1,0c0.1,0,0.4-0.3,0.4-0.2c0,0-0.3,0.1-0.1,0c0.1,0,0.2-0.1,0.2-0.1c0.1,0,0.1,0,0.2,0c0,0,0.3-0.1,0.1,0
		c-0.2,0,0.1,0,0.1,0c0.1,0,0.2,0,0.2,0s0.2,0,0.2,0c0.3,0-0.2-0.1,0,0c0.2,0,0.3,0.1,0.5,0.1c0.3,0.1-0.2-0.1,0,0
		c0.1,0.1,0.2,0.1,0.3,0.1c0.1,0,0.1,0.1,0.1,0.1c0.1,0,0.1,0.1,0.1,0.1c-0.2-0.1-0.2-0.1-0.1,0c0.1,0.1,0.2,0.2,0.3,0.3
		c0.2,0.2-0.2-0.2,0,0c0.1,0.1,0.1,0.1,0.1,0.2c0,0.1,0.1,0.1,0.1,0.2c0.1,0.2-0.1-0.2,0,0c0.1,0.2,0.1,0.3,0.1,0.5
		c0.1,0.2,0,0,0-0.1C74.6,28.4,74.6,28.7,74.6,28.7c0,0.7,0.6,1.3,1.3,1.3c0.7,0,1.3-0.6,1.3-1.3c0-1.9-1.2-3.5-3-4.2
		c-1.7-0.6-3.7-0.1-4.9,1.3c-1.2,1.5-1.4,3.5-0.5,5.2c1,1.7,2.9,2.4,4.8,2.1c2.1-0.4,3.5-2.3,3.6-4.4c0-0.7-0.6-1.3-1.3-1.3
		C75.2,27.5,74.6,28,74.6,28.7"/>
	<path class="st0" d="M75.9,48.4c-6.7,3.3-13.3,6.5-20,9.8c-8.7,4.3-17.5,8.6-26.2,12.8c-0.6,0.3-1.2,0.6-1.8,0.9
		c-4,1.6-7.9-2.8-5.8-6.6c1.2-2.2,4.8-3.3,6.9-4.4c9.6-4.7,19.3-9.5,28.9-14.2c3.9-1.9,7.7-3.8,11.6-5.7c0.8-0.4,1.6-0.8,2.4-1.2
		c2.9-1.3,5.1,0.7,6.1,3.3C78.7,45.3,77.7,47.4,75.9,48.4c-1.5,0.8-0.2,3,1.3,2.2c1.9-1,3.2-2.8,3.5-4.9c0.3-1.8-0.3-3.4-1.1-5
		c-1.7-3.4-5.6-4.6-8.9-3c-2.6,1.2-5.1,2.5-7.6,3.7c-10.5,5.2-21.1,10.3-31.6,15.5c-2.8,1.4-5.6,2.7-8.3,4.1c-2.8,1.5-4.5,4.4-4,7.6
		c0.6,4.1,4.7,6.9,8.8,6c1-0.2,2-0.8,3-1.3l4.7-2.3c5-2.5,10.1-4.9,15.1-7.4c8.7-4.3,17.5-8.3,26.1-12.8c0.2-0.1,0.3-0.2,0.5-0.2
		C78.6,49.8,77.3,47.6,75.9,48.4"/>
	<path class="st0" d="M49.4,61.3c-6.9,3.4-13.8,6.8-20.8,10.2c-2.1,1.1-4.7,0.9-6.2-1.1c-1.9-2.5-0.8-5.9,1.9-7.2
		c3.4-1.8,6.8-3.4,10.3-5c3.6-1.8,7.2-3.5,10.9-5.3c-0.6-0.5-1.2-1-1.9-1.4c-0.8,4.8,1.5,9.8,5.8,12.1c1.4,0.8,2.7-1.4,1.3-2.2
		c-3.3-1.8-5.3-5.5-4.7-9.3c0.2-1.1-0.8-1.9-1.9-1.4c-7,3.5-14.2,6.8-21.2,10.4c-3,1.6-4.7,5.1-3.8,8.5c1,3.6,4.7,5.9,8.4,5.1
		c1.4-0.3,2.8-1.1,4.1-1.8c2.2-1.1,4.5-2.2,6.7-3.3l12.3-6C52.1,62.8,50.9,60.6,49.4,61.3"/>
	<path class="st0" d="M76.9,42.8c0.2,0.3,0.3,0.7,0.4,1.1c0.1,0.2,0.1,0.4,0.2,0.6c0,0.1,0,0.2,0.1,0.3c0-0.2,0,0.1,0,0.1
		c0,0.2,0,0.4,0,0.6c0,0.1-0.1,0.5,0,0.2c0,0.1-0.1,0.3-0.1,0.4c-0.1,0.2,0,0,0,0c0,0.1-0.1,0.2-0.1,0.2c0,0,0.2-0.2,0-0.1
		c-0.1,0.1-0.2,0.1,0.1,0c0,0-0.1,0.1-0.1,0.1c0.3-0.1,0.2-0.1,0.1,0c-0.3,0.1,0.2-0.1,0,0c-0.1,0-0.3,0-0.1,0c0.2,0.1,0,0-0.1,0
		c-0.1,0-0.3-0.2-0.1,0c-0.1-0.1-0.2-0.1-0.4-0.2c-0.1,0-0.1-0.1-0.2-0.1c-0.2-0.1,0.2,0.1,0,0c-0.2-0.1-0.3-0.2-0.4-0.4
		c-0.1-0.1-0.2-0.2-0.3-0.3c-0.1-0.1-0.1-0.2-0.2-0.2c0,0,0.1,0.2,0,0c-0.2-0.3-0.4-0.7-0.7-1c-0.4-0.7-0.6-1.5-0.8-2.3
		c0,0.2,0,0,0-0.1c0-0.1,0-0.2,0-0.3c0-0.2,0-0.4,0-0.5c0,0,0-0.3,0-0.1c0,0.2,0-0.1,0-0.1c0-0.1,0-0.1,0.1-0.2c0,0,0-0.1,0.1-0.1
		c-0.1,0.1-0.1,0.2,0,0.1c0,0,0.1-0.1,0.1-0.2c0.1-0.2-0.1,0.2,0,0c0,0,0.2-0.2,0,0c-0.2,0.1,0.1,0,0.1,0c-0.4,0.1,0,0,0,0
		c0,0-0.1,0-0.1,0c-0.1,0-0.1,0,0,0h0.1c0.1,0,0.1,0-0.1,0c0,0,0.3,0.1,0.4,0.1c0.2,0-0.2-0.1-0.1,0c0.1,0.1,0.2,0.1,0.2,0.1
		c0.1,0,0.4,0.3,0.2,0.1c0.2,0.1,0.3,0.2,0.4,0.4c0.1,0.1,0.3,0.3,0.4,0.4c0.1,0.1,0.1,0.1,0.2,0.2c-0.1-0.2,0.1,0.2,0.1,0.2
		C76.5,41.9,76.7,42.3,76.9,42.8c0.3,0.6,1.2,0.7,1.7,0.4c0.6-0.4,0.8-1.1,0.4-1.7c-0.8-1.6-2.2-3.4-4-3.8c-0.9-0.2-1.9,0-2.5,0.7
		C71.9,39,71.7,40,71.7,41c0,2.2,1.1,4.5,2.6,6.1c1.1,1.2,3,2.3,4.6,1.3c1-0.7,1.3-1.9,1.3-3c0-1.3-0.4-2.7-1-3.9
		c-0.3-0.6-1.2-0.8-1.7-0.5C76.7,41.4,76.6,42.1,76.9,42.8"/>
	<path class="st0" d="M99.5,50.9c-0.1,15.3-7.3,29.9-19.7,39c-12.5,9.2-28.9,11.9-43.7,7.2c-14.4-4.6-26.1-16-31-30.3
		C-0.4,50.8,3,32.5,14,19.6C26.4,5,46.6-1,65,4.5c2.4,0.7,4.7,1.6,6.9,2.7c0.1-0.8,0.2-1.5,0.3-2.3c-5,0.8-8.1,5.6-7,10.5
		c0.5-0.5,1-1,1.6-1.6C64.5,13.3,62.3,14,61,16c-1.2,1.8-1.2,4.3,0.1,6.1c2.8,3.9,8.9,2.3,9.6-2.4l-1.9,0.8c3.2,2,7.2,1.8,10.1-0.6
		c2.7-2.3,3.7-6.1,2.5-9.4c-0.6,0.5-1.2,0.9-1.9,1.4C92,20.9,99.4,35.5,99.5,50.9c0,1.6,2.5,1.6,2.5,0c-0.1-16.4-8-31.7-21.2-41.4
		C79.9,8.9,78.6,10,79,11c2,5.5-3.9,10.3-8.9,7.2c-0.6-0.4-1.8-0.1-1.9,0.8c-0.3,2.4-3.1,3.8-4.9,1.8c-1.8-2.1,0.2-5.1,2.8-4.6
		c1,0.2,1.8-0.6,1.6-1.6c-0.8-3.6,1.7-6.8,5.2-7.4c1.1-0.2,1.2-1.9,0.3-2.3c-18.4-8.7-40.6-5.8-56,7.7C3.6,24.7-2.6,43.5,1,61.3
		c3.2,15.6,13.9,29.1,28.3,35.8c14.9,7,32.7,6.3,47-1.9c13.9-7.9,23.3-22.2,25.3-38.1c0.3-2.1,0.4-4.2,0.4-6.2
		C102,49.3,99.5,49.3,99.5,50.9"/>
	<path class="st0" d="M19.3,12.7c2,2.5,4.1,5.1,6.1,7.6c4.9,6.1,9.8,12.3,14.8,18.4c5.9,7.4,11.8,14.8,17.8,22.2
		c5.1,6.4,10.2,12.8,15.4,19.2c1.7,2.1,3.4,4.2,5.1,6.3c0.8,1,1.5,2.1,2.4,3c0,0,0.1,0.1,0.1,0.1c1,1.3,2.8-0.5,1.8-1.8
		c-2-2.5-4.1-5.1-6.1-7.6c-4.9-6.1-9.8-12.3-14.8-18.4C55.9,54.4,50,47,44.1,39.6c-5.1-6.4-10.2-12.8-15.4-19.2
		c-1.7-2.1-3.4-4.2-5.1-6.4c-0.8-1-1.5-2.1-2.4-3c0,0-0.1-0.1-0.1-0.1C20.1,9.7,18.3,11.5,19.3,12.7"/>
</g>
</svg>
