<?xml version="1.0" encoding="utf-8"?>
<!-- Generator: Adobe Illustrator 28.1.0, SVG Export Plug-In . SVG Version: 6.00 Build 0)  -->
<svg version="1.1" id="Layer_1" xmlns="http://www.w3.org/2000/svg" xmlns:xlink="http://www.w3.org/1999/xlink" x="0px" y="0px"
	 viewBox="0 0 133.8 101.9" style="enable-background:new 0 0 133.8 101.9;" xml:space="preserve">
<style type="text/css">
	.st0{fill:#BD9E44;}
</style>
<g>
	<path class="st0" d="M68.5,100.4V27.6c0-2-3.1-2-3.1,0v72.8C65.3,102.4,68.5,102.4,68.5,100.4"/>
	<path class="st0" d="M27.4,29.2h79.1c2,0,2-3.1,0-3.1H27.4C25.4,26.1,25.4,29.2,27.4,29.2"/>
	<path class="st0" d="M133.8,100.4V63.8c0-2-3.1-2-3.1,0v36.7C130.7,102.4,133.8,102.4,133.8,100.4"/>
	<path class="st0" d="M92.9,100.4V63.8c-0.5,0.5-1,1-1.6,1.6h40.8c0.8,0,1.6-0.7,1.6-1.6V1.6c0-2-3.1-2-3.1,0v62.2
		c0.5-0.5,1-1,1.6-1.6H91.4c-0.8,0-1.6,0.7-1.6,1.6v36.7C89.8,102.4,92.9,102.4,92.9,100.4"/>
	<path class="st0" d="M133.6,63c-2.9-4.4-7.3-7.7-12.5-8.6c-3-0.6-6.2-0.3-9.2-0.3s-6.2-0.2-9.2,0.3c-5.3,1-9.7,4.2-12.6,8.7
		c-1.1,1.7,1.6,3.3,2.7,1.6c2.8-4.2,7.2-7.1,12.3-7.4c2.3-0.2,4.6,0,6.8,0c2.1,0,4.3-0.1,6.4,0c5.2,0.3,9.8,3.1,12.6,7.4
		C132,66.2,134.7,64.6,133.6,63"/>
	<path class="st0" d="M131.4,0.3c-4.4,2.9-7.6,7.3-8.6,12.5c-0.6,3-0.3,6.2-0.3,9.2s-0.2,6.2,0.3,9.2c1,5.3,4.2,9.7,8.7,12.6
		c1.7,1.1,3.2-1.6,1.6-2.7c-4.2-2.8-7-7.2-7.4-12.3c-0.2-2.3-0.1-4.6-0.1-6.8c0-2.1-0.1-4.3,0-6.4c0.3-5.2,3.1-9.8,7.4-12.6
		C134.7,1.9,133.1-0.8,131.4,0.3"/>
	<path class="st0" d="M3.2,100.4V63.8c0-2-3.1-2-3.1,0v36.7C0,102.4,3.2,102.4,3.2,100.4"/>
	<path class="st0" d="M44,100.4V63.8c0-0.8-0.7-1.6-1.6-1.6H1.6c0.5,0.5,1,1,1.6,1.6V1.6c0-2-3.1-2-3.1,0v62.2
		c0,0.8,0.7,1.6,1.6,1.6h40.8c-0.5-0.5-1-1-1.6-1.6v36.7C40.9,102.4,44,102.4,44,100.4"/>
	<path class="st0" d="M43.8,63c-2.9-4.4-7.3-7.7-12.6-8.7C28.2,53.8,25,54,22,54s-6.2-0.2-9.2,0.3c-5.2,1-9.7,4.2-12.5,8.6
		c-1.1,1.7,1.6,3.3,2.7,1.6c2.7-4.2,7.2-7,12.2-7.4c2.3-0.2,4.6,0,6.8,0c2.1,0,4.3-0.1,6.4,0c5.2,0.3,9.8,3.1,12.7,7.5
		C42.2,66.3,44.9,64.7,43.8,63"/>
	<path class="st0" d="M2.4,43.8c4.4-2.9,7.7-7.3,8.7-12.6c0.6-3,0.3-6.2,0.3-9.2s0.2-6.2-0.4-9.2c-1-5.2-4.2-9.7-8.6-12.5
		C0.7-0.8-0.8,1.9,0.8,3c4.2,2.7,7,7.2,7.4,12.2c0.2,2.3,0.1,4.6,0.1,6.8c0,2.1,0.1,4.3,0,6.4C8,33.7,5.2,38.3,0.8,41.1
		C-0.9,42.2,0.7,44.9,2.4,43.8"/>
</g>
</svg>
