<?xml version="1.0" encoding="utf-8"?>
<!-- Generator: Adobe Illustrator 28.1.0, SVG Export Plug-In . SVG Version: 6.00 Build 0)  -->
<svg version="1.1" id="Layer_1" xmlns="http://www.w3.org/2000/svg" xmlns:xlink="http://www.w3.org/1999/xlink" x="0px" y="0px"
	 viewBox="0 0 132.5 108.2" style="enable-background:new 0 0 132.5 108.2;" xml:space="preserve">
<style type="text/css">
	.st0{fill:#BD9E44;}
</style>
<g>
	<path class="st0" d="M59.1,90c5.2,0,10.4-0.6,15.6-1.2c4.5-0.6,9.5-0.8,13.6-2.8c1.8-0.9,0.2-3.5-1.6-2.7c-3.9,2-9.2,2.1-13.5,2.6
		c-4.7,0.6-9.4,1.1-14.1,1C57.1,87,57.1,90,59.1,90"/>
	<path class="st0" d="M24.1,81.8c5.8,0.1,10.4-1.9,15.4-4.3c5.4-2.6,11-2.8,16.8-1.3c6.3,1.6,12.5,3.3,19.1,3.5
		c3.4,0.1,12.4-1.8,10.6,4.6c-0.4,1.3,1.1,2.3,2.3,1.7c3.1-1.6,6.3-3.1,9.6-4.3c3.5-1.3,7.9-3,11.8-2.2c1.1,0.2,2.8,0.9,3.2,2.2
		c0.6,1.6-1.3,2.4-2.5,3.1c-3.2,1.9-6.4,3.8-9.7,5.5c-6.8,3.6-13.6,7.3-20.6,10.6c-7.6,3.5-15.9,5.4-24.2,3.4
		c-4.9-1.2-9.6-3.1-14.6-4c-3.8-0.7-7.6-1-11.4-1c-2,0-2,3.1,0,3.1c4.2-0.1,8.5,0.4,12.6,1.2c5.3,1.1,10.2,3.3,15.5,4.1
		c9,1.3,17.6-1.3,25.6-5.3c8.3-4.1,16.6-8.3,24.6-12.9c2.2-1.3,6.5-2.9,7.7-5.4c1.3-2.7-0.9-5.8-3.3-6.9c-3.9-2-9-0.7-12.9,0.6
		c-4.4,1.4-8.7,3.4-12.9,5.5c0.8,0.6,1.5,1.2,2.3,1.7c0.9-3.1-0.5-6.2-3.4-7.8c-2.1-1.2-4.1-1-6.3-0.8c-5.9,0.5-11.8-0.5-17.5-2
		C55,72.8,48.4,71,41.5,73.4c-2.3,0.8-4.4,1.9-6.6,3c-3.4,1.7-7.1,2.4-10.9,2.4C22.1,78.7,22.1,81.8,24.1,81.8"/>
	<path class="st0" d="M21.7,77.3c-1.9,0.5-5.3,0.8-6.5,2.5c-1.2,1.6-0.3,3.4,0.2,5.1c1.6,5.6,3.1,11.3,4.7,16.9
		c0.5,1.7,0.8,3.9,2.9,4.3c1,0.2,2.2-0.3,3.2-0.5c1.1-0.3,2.5-0.5,3.5-1c2.2-1.1,1.8-3.1,1.3-5c-0.7-2.6-1.5-5.2-2.2-7.8
		c-0.9-3.2-1.8-6.5-2.7-9.8c-0.6-2.2-1-4.8-4-4.6c-2,0.1-2,3.2,0,3.1c0.9-0.1,2.8,8.8,3.1,9.9c0.7,2.4,1.3,4.8,2,7.2
		c0.2,0.8,1.5,3.4,1.2,4.2c-0.1,0.1-3.9,1.5-4.5,1.3c-0.6-0.1,0.1,0.3-0.4-0.3c-0.3-0.5-0.4-1.4-0.6-2c-1.3-4.7-2.6-9.4-4-14.1
		c-0.3-1-0.6-2.1-0.9-3.1c-0.1-0.3-0.6-1.4-0.5-1.8c0.2-0.5,3.9-1.2,4.9-1.4C24.4,79.7,23.6,76.7,21.7,77.3"/>
	<path class="st0" d="M125.6,68c-0.6,0.5-4.2,3.1-4.2,3.7c0-0.2,1.3,0,0.6-0.3c-0.4-0.1-1.1,0-1.4,0H87.7c-2,0-2,3.1,0,3.1h33.5
		c2.8,0,4.6-2.5,6.5-4.3C129.2,68.8,127,66.6,125.6,68"/>
	<path class="st0" d="M1.5,65.7H131c2,0,2-3.1,0-3.1H1.5C-0.5,62.6-0.5,65.7,1.5,65.7"/>
	<path class="st0" d="M31.4,71.4H17.1c-0.8,0-6.8-0.3-6.9,0c0.1-0.4,1.5,1.1,0.2-0.2c-0.5-0.5-1.1-1-1.6-1.5C8,68.9,7,68.1,6.1,67.3
		c-1.5-1.3-3.7,0.8-2.2,2.2c1.6,1.5,3.5,3.8,5.4,4.8c1,0.5,2.6,0.2,3.6,0.2h18.4C33.4,74.5,33.4,71.4,31.4,71.4"/>
	<path class="st0" d="M12.8,64.1C12.9,41.8,27,21.4,48.1,13.8c21-7.5,44.8-1,59.1,16c8.1,9.6,12.4,21.8,12.5,34.4c0,2,3.1,2,3.1,0
		c-0.2-23.5-14.9-44.8-37-53.1c-22.2-8.3-48.1-1.3-63.2,17c-8.4,10.2-12.9,22.9-13,36C9.7,66.1,12.7,66.1,12.8,64.1"/>
	<path class="st0" d="M71.9,4c-1.4-3.4-5.3-5.2-8.7-3.2c-3.4,2-3.7,6.5-1.1,9.3c1.3,1.5,3.5-0.7,2.2-2.2c-3-3.4,3-7.1,4.7-3.1
		C69.7,6.6,72.6,5.8,71.9,4"/>
</g>
</svg>
