<?xml version="1.0" encoding="utf-8"?>
<!-- Generator: Adobe Illustrator 28.1.0, SVG Export Plug-In . SVG Version: 6.00 Build 0)  -->
<svg version="1.1" id="Layer_1" xmlns="http://www.w3.org/2000/svg" xmlns:xlink="http://www.w3.org/1999/xlink" x="0px" y="0px"
	 viewBox="0 0 60.6 102.6" style="enable-background:new 0 0 60.6 102.6;" xml:space="preserve">
<style type="text/css">
	.st0{fill:#BD9E44;}
</style>
<g>
	<path class="st0" d="M0,27.2c1.2,10.8,2.5,21.5,3.7,32.2c0.8,7.4,1.7,14.7,2.5,22.1c0.4,3.4,0.7,6.9,1.2,10.3
		c0.9,5.4,5.3,9.7,10.6,10.5c2.6,0.4,5.4,0.2,8.1,0.2H37c3.8,0,7.3-0.8,10.1-3.4c3.9-3.7,4-8.7,4.5-13.6c0.7-6.7,1.3-13.4,2-20.1
		c1.3-12.5,2.5-25.1,3.8-37.6c0-0.2,0-0.5,0.1-0.7c0.1-0.7-0.6-1.3-1.3-1.3h-55c-1.6,0-1.6,2.5,0,2.5h55c-0.4-0.4-0.8-0.8-1.3-1.3
		c-1,10.4-2.1,20.8-3.2,31.2c-1.1,10.8-2,21.7-3.3,32.5c-0.6,4.8-4.5,8.7-9.4,9c-2.4,0.2-4.9,0-7.4,0H21.4c-3.8,0-7.4-0.9-9.7-4.2
		c-2.3-3.2-2.2-7.9-2.7-11.7c-0.8-6.7-1.6-13.5-2.3-20.2l-4.1-36c0-0.2,0-0.5-0.1-0.7C2.4,25.6-0.2,25.6,0,27.2"/>
	<path class="st0" d="M29.3,57.6H45c1.6,0,1.6-2.5,0-2.5H29.3C27.7,55.1,27.7,57.6,29.3,57.6"/>
	<path class="st0" d="M4.6,57.6h8.6c0.7,0,1.3-0.6,1.3-1.3s-0.6-1.3-1.3-1.3H4.6c-0.7,0-1.3,0.6-1.3,1.3S3.9,57.6,4.6,57.6"/>
	<path class="st0" d="M18.3,44c-5.9,5-8.3,13.5-5.6,20.8c2.7,7.4,9.8,12.4,17.7,12.5c4.5,0,8.7-1.6,12.2-4.4c0.8-0.6,0.5-1.8,0-2.4
		C36.1,62.8,29.8,55,23.4,47.3c-0.9-1.1-1.8-2.2-2.7-3.3c-1.4-1.7-3.8,0.7-2.4,2.4c6.4,7.7,12.7,15.5,19.1,23.2l2.7,3.3v-2.4
		c-5,4-12.1,4.5-17.6,1.2c-5.5-3.3-8.6-10-7.3-16.3c0.7-3.6,2.7-6.7,5.5-9.1C22.4,45,20,42.6,18.3,44"/>
	<path class="st0" d="M24.1,74.5c2-4.7,4-9.4,6-14.1c0.3-0.7,0.6-1.3,0.9-2c0.4-0.9-0.3-2.2-1.4-1.9c-4.7,1.4-9.4,2.9-14,4.3
		c-0.7,0.2-1.4,0.4-2,0.6c-1.6,0.5-0.9,2.9,0.7,2.4l14-4.3c0.7-0.2,1.4-0.4,2-0.6c-0.5-0.6-1-1.2-1.4-1.9c-2,4.7-4,9.4-6,14.1
		c-0.3,0.7-0.6,1.3-0.9,2c-0.3,0.6-0.2,1.4,0.5,1.7C22.9,75.3,23.8,75.2,24.1,74.5"/>
	<path class="st0" d="M45.7,45.4c0,2.2-1.4,4.3-3.5,5.1c-2.2,0.8-4.7,0.1-6.2-1.7c-1.4-1.8-1.6-4.3-0.4-6.2c1.1-1.9,3.4-3,5.6-2.6
		C43.8,40.5,45.7,42.8,45.7,45.4c0,1.6,2.6,1.6,2.5,0c0-3.3-2.1-6.3-5.2-7.5c-3.1-1.2-6.8-0.2-8.9,2.4c-2.1,2.6-2.5,6.3-0.8,9.2
		c1.7,2.9,5.1,4.3,8.4,3.8c3.7-0.7,6.4-4.1,6.5-7.8C48.3,43.8,45.7,43.8,45.7,45.4"/>
	<path class="st0" d="M28.5,35.7c0,0.1,0,0.2,0,0.3c0,0.2,0,0,0,0c0,0.2-0.1,0.3-0.1,0.5c0,0.1-0.1,0.2-0.1,0.3c0,0,0.1-0.2,0,0
		c-0.1,0.2-0.2,0.4-0.3,0.5c-0.2,0.2,0.1-0.1,0,0c-0.1,0-0.1,0.1-0.2,0.2c0,0-0.1,0.1-0.1,0.1c0,0-0.3,0.2-0.1,0.1
		c-0.1,0.1-0.3,0.2-0.4,0.3c-0.1,0-0.1,0.1-0.2,0.1c-0.1,0.1-0.1,0.1,0,0c0,0-0.1,0-0.1,0c-0.2,0-0.3,0.1-0.5,0.1c-0.1,0-0.3,0,0,0
		c-0.1,0-0.2,0-0.3,0c-0.2,0-0.4,0-0.5,0c-0.2,0,0.3,0.1,0,0c-0.1,0-0.2,0-0.3-0.1s-0.2-0.1-0.3-0.1c-0.1,0-0.2-0.1,0,0
		c-0.1-0.1-0.3-0.2-0.5-0.2c-0.1,0-0.1-0.1-0.2-0.1c-0.2-0.1,0.2,0.2,0,0c-0.1-0.1-0.3-0.3-0.4-0.4c0.2,0.2,0,0.1,0,0
		c-0.1-0.1-0.1-0.2-0.2-0.3c0-0.1-0.1-0.1-0.1-0.2c0,0-0.2-0.4,0-0.1c-0.1-0.2-0.1-0.3-0.2-0.5c0-0.1,0-0.1,0-0.2
		c-0.1-0.2,0,0.2,0-0.1c0-0.2,0-0.3,0-0.5c0,0,0.1-0.4,0-0.1c0-0.1,0-0.1,0-0.2c0-0.2,0.1-0.3,0.1-0.5c0.1-0.3-0.1,0.2,0-0.1
		c0-0.1,0.1-0.2,0.1-0.3c0-0.1,0.1-0.1,0.1-0.2c0-0.1,0.2-0.2,0,0c0.1-0.1,0.2-0.2,0.4-0.4c0,0,0.2-0.2,0.1-0.1
		c-0.1,0.1,0.1-0.1,0.1-0.1c0.2-0.1,0.4-0.2,0.5-0.3c0,0-0.2,0.1,0,0c0.1,0,0.2-0.1,0.3-0.1c0.1,0,0.1,0,0.2,0c0,0,0.4-0.1,0.1,0
		c-0.2,0,0.1,0,0.2,0c0.1,0,0.2,0,0.3,0s0.2,0,0.3,0c0.3,0-0.2,0,0.1,0c0.2,0,0.4,0.1,0.6,0.2c0.3,0.1-0.1-0.1,0,0
		c0.1,0.1,0.2,0.1,0.3,0.2c0.1,0,0.1,0.1,0.2,0.1c0.1,0,0.1,0.1,0.2,0.1c-0.1-0.1-0.1-0.1,0,0c0.1,0.1,0.2,0.2,0.4,0.4
		c0.2,0.2-0.1-0.2,0.1,0.1c0.1,0.1,0.1,0.2,0.2,0.3s0.1,0.2,0.1,0.3c0.1,0.2,0-0.2,0,0.1c0.1,0.2,0.1,0.4,0.2,0.6c0,0.1,0,0.2,0,0
		C28.4,35.4,28.5,35.6,28.5,35.7c0,0.7,0.6,1.3,1.3,1.3c0.7,0,1.3-0.6,1.3-1.3c0-2.2-1.4-4.1-3.5-4.9c-2-0.7-4.4-0.1-5.7,1.5
		c-1.4,1.7-1.7,4.1-0.5,6c1.1,1.9,3.4,2.8,5.5,2.4c2.4-0.4,4.1-2.7,4.2-5.1c0-0.7-0.6-1.3-1.3-1.3C29,34.5,28.5,35,28.5,35.7"/>
	<path class="st0" d="M32.5,95.7c-3.3-2.3-6.6-4.6-9.8-6.9c0.1,0.6,0.3,1.2,0.5,1.7l6.9-9.8c-0.6,0.2-1.2,0.3-1.7,0.4
		c3.3,2.3,6.6,4.6,9.8,6.9c-0.2-0.6-0.3-1.2-0.5-1.7c-2.3,3.3-4.6,6.6-6.9,9.8c-0.9,1.3,1.3,2.6,2.2,1.3l6.9-9.8
		c0.4-0.6,0.1-1.4-0.5-1.7c-3.3-2.3-6.6-4.6-9.8-6.9c-0.6-0.4-1.4-0.1-1.7,0.4c-2.3,3.3-4.6,6.6-6.9,9.8c-0.4,0.6-0.1,1.4,0.5,1.7
		c3.3,2.3,6.6,4.6,9.8,6.9C32.6,98.8,33.8,96.6,32.5,95.7"/>
	<path class="st0" d="M39.7,32.6c1-4.9,2-9.8,2.9-14.6c0.5-2.5,0.9-5,2.5-7.2c1.8-2.6,4.6-3.7,7.4-5l7.4-3.5
		c1.5-0.7,0.2-2.9-1.3-2.2c-2.2,1-4.5,2.1-6.7,3.1c-2.7,1.2-5.4,2.3-7.5,4.4c-2.3,2.3-3.3,5.2-4,8.3c-0.6,3-1.2,5.9-1.8,8.9
		c-0.5,2.4-0.9,4.7-1.4,7.1C37,33.5,39.4,34.2,39.7,32.6"/>
</g>
</svg>
