<?xml version="1.0" encoding="UTF-8"?>
<svg id="Layer_1" data-name="Layer 1" xmlns="http://www.w3.org/2000/svg" viewBox="0 0 211.42 211.62">
  <defs>
    <style>
      .cls-1 {
        fill: #ffebd4;
        stroke-width: 0px;
      }
    </style>
  </defs>
  <path class="cls-1" d="M0,56.58l105.7,49.13L0,156.76v-16.65l87.12-42.33c-25.51-12.11-41.66-19.2-50.5-22.28-14.89-5.26-27.1-6.74-36.63-4.46v-14.44Z"/>
  <path class="cls-1" d="M154.83,0l-49.13,105.71L54.04,0h17.27l42.48,86.78c12.11-25.51,19.06-41.33,22.14-50.16,5.26-14.89,6.74-27.1,4.46-36.63h14.44Z"/>
  <path class="cls-1" d="M211.42,154.85l-105.72-49.14,105.72-52.02v17.98l-87,41.89c25.51,12.11,41.54,19.29,50.37,22.38,14.89,5.26,27.1,6.74,36.63,4.46v14.44Z"/>
  <path class="cls-1" d="M56.67,211.62l49.04-105.91,52.03,105.91h-16.44l-43.04-87.84c-12.11,25.51-19.6,42.37-22.68,51.21-5.26,14.89-6.74,27.1-4.46,36.63h-14.44Z"/>
</svg>