<?xml version="1.0" encoding="utf-8"?>
<!-- Generator: Adobe Illustrator 28.1.0, SVG Export Plug-In . SVG Version: 6.00 Build 0)  -->
<svg version="1.1" id="Layer_1" xmlns="http://www.w3.org/2000/svg" xmlns:xlink="http://www.w3.org/1999/xlink" x="0px" y="0px"
	 viewBox="0 0 116.7 104.9" style="enable-background:new 0 0 116.7 104.9;" xml:space="preserve">
<style type="text/css">
	.st0{fill:#BD9E44;}
</style>
<g>
	<path class="st0" d="M26.2,18.8C36.2,8,50.5,2,65.2,2.6c14.6,0.6,28,7.7,37.1,19.1c1.1,1.3,2.9-0.6,1.9-1.9
		C89,0.8,62.1-5.5,40.2,5.1C34.2,8,28.8,12.1,24.3,17C23.2,18.2,25.1,20.1,26.2,18.8"/>
	<path class="st0" d="M103.5,81.6c-7.6,10.5-19.1,17.7-31.9,20c-12.8,2.2-26.2-0.7-36.9-8.1c-5.9-4.1-10.9-9.5-14.6-15.6
		c-0.9-1.5-3.2-0.1-2.3,1.3c6.9,11.5,17.9,20.1,30.8,23.8c13.4,3.8,28.1,2.1,40.2-4.8c6.7-3.8,12.4-9,16.9-15.2
		C106.9,81.5,104.5,80.2,103.5,81.6"/>
	<path class="st0" d="M89.5,34.5c7.1,10.8,7.3,24.8,0.2,35.6c-6.4,9.6-17.6,15-29.1,14.2C49.2,83.4,38.8,76.2,34,65.8
		c-4.9-10.5-3.5-23.2,3.4-32.5c8.5-11.4,23.7-15.6,37-10.8c1.6,0.6,2.3-2,0.7-2.6c-12.8-4.7-27.5-1.5-37,8.4
		c-8.7,9-11.9,22.4-8.2,34.3c3.7,11.8,13.6,21,25.7,23.6c12.2,2.6,25.2-1.6,33.4-11.1c10.2-11.7,11.2-29.1,2.7-42.1
		C90.9,31.7,88.6,33,89.5,34.5"/>
	<path class="st0" d="M116.7,96.2c-0.1-10.2-0.1-20.3-0.2-30.5c-0.1-16.2-0.2-32.4-0.3-48.6c0-3.7,0-7.4-0.1-11.2
		c0-1.2-1.4-1.7-2.3-0.9c-2,1.8-3.4,4.6-4.5,7.1c-3.6,8-4.9,16.9-5.4,25.6c-0.4,7,0.2,14.3,1.7,21.2c0.5,2.2,1.4,4.4,1.9,6.6
		c0.7,3.2,0.5,6.4,0.1,9.6c-0.6,5.2-1.2,10.4-1.4,15.6c-0.1,3.4-0.3,8.3,3.4,10.1C113,102.2,116.6,99.6,116.7,96.2
		c0.1-1.7-2.6-1.7-2.7,0c-0.1,1.3-1.2,2.4-2.6,2.2c-1.8-0.2-2.3-2.3-2.5-3.9c-0.4-3.9,0.1-8,0.5-11.9c0.4-4.7,1.6-9.6,1.2-14.4
		c-0.3-4.5-2.2-8.6-2.9-13c-2.2-13.5-1.7-28.7,3.8-41.4c1-2.4,2.3-5.3,4.3-7c-0.8-0.3-1.5-0.6-2.3-0.9c0.1,10.2,0.1,20.4,0.2,30.5
		c0.1,16.2,0.2,32.4,0.3,48.6c0,3.7,0,7.4,0.1,11.2C114.1,97.9,116.7,97.9,116.7,96.2"/>
	<path class="st0" d="M12.4,33.9c0.9,18.5,1.7,37,2.6,55.4c0.1,3.1,1.7,8.7-2.9,9c-1.7,0.1-1.7,2.8,0,2.7c2.9-0.2,5.8-2.2,5.9-5.3
		c0-0.9-0.1-1.8-0.1-2.7c-0.2-4.6-0.4-9.2-0.6-13.8C16.6,67.1,16,55,15.4,42.9c-0.1-3-0.3-6-0.4-8.9C15,32.2,12.3,32.2,12.4,33.9"/>
	<path class="st0" d="M14.1,35.3c4.5-0.2,7.7-3.7,8.4-8.1c0.3-2-0.1-4.2-0.2-6.2c-0.4-5.3-0.8-10.6-1.2-15.9c-0.1-1.7-2.8-1.7-2.7,0
		c0.4,4.5,0.7,9,1.1,13.5c0.4,4.8,2.1,13.6-5.3,14C12.4,32.7,12.3,35.4,14.1,35.3"/>
	<path class="st0" d="M8.6,32.7c-7.4-0.3-5.8-9.1-5.6-13.9c0.3-4.5,0.5-9,0.8-13.5c0.1-1.7-2.6-1.7-2.7,0c-0.3,5.3-0.6,10.6-1,15.9
		c-0.1,2-0.4,4.1-0.2,6.1c0.6,4.4,4,8,8.5,8.1C10.4,35.4,10.4,32.7,8.6,32.7"/>
	<path class="st0" d="M7.7,34c-0.5,19.4-1,38.7-1.6,58.1c0,1.2-0.1,2.5-0.1,3.7c0.1,3.2,3,5.2,5.9,5.3c1.7,0.1,1.7-2.6,0-2.7
		c-4.3-0.2-3.2-4.5-3.2-7.3c0.1-4.9,0.3-9.7,0.4-14.6C9.5,65,9.8,53.5,10.1,42c0.1-2.7,0.1-5.3,0.2-8C10.4,32.3,7.7,32.3,7.7,34"/>
	<path class="st0" d="M7.2,5.9C7,12.8,6.8,19.6,6.6,26.4c-0.1,1.7,2.6,1.7,2.7,0c0.2-6.8,0.4-13.7,0.6-20.5C9.9,4.2,7.3,4.2,7.2,5.9
		"/>
	<path class="st0" d="M12.4,5.9c0.3,6.8,0.7,13.6,1,20.5c0.1,1.7,2.8,1.7,2.7,0c-0.3-6.8-0.7-13.6-1-20.5C15,4.2,12.3,4.2,12.4,5.9"
		/>
	<path class="st0" d="M54.8,65.2c3.8,4,11.2,3.8,16.1,2.3c8-2.4,13-9.3,14.2-17.5c1.1-7.6-0.6-15.3-2.8-22.5c-0.2-0.5-0.7-1-1.3-1
		c-7.9,0.8-15.9,2-23.3,5.1c-4.3,1.8-8.6,4.2-11.5,8c-3.8,5-4,11.6-0.7,17C47.9,60.4,51.8,62,54.8,65.2c1.2,1.2,3.1-0.7,1.9-1.9
		c-2.6-2.7-6-4.1-8.2-7c-1.4-1.8-2.3-4.1-2.7-6.4c-1-7.3,5.2-12.3,11.2-15.1c7.4-3.5,15.8-4.8,23.9-5.6c-0.4-0.3-0.9-0.6-1.3-1
		c3,9.5,5.7,22-0.8,30.7c-3.6,4.9-9.9,7.2-15.8,6.7c-2.2-0.2-4.8-0.8-6.3-2.4C55.5,62,53.6,63.9,54.8,65.2"/>
	<path class="st0" d="M51.8,71.7c-0.2,0.6,0.2-0.4,0.3-0.6c0.3-0.8,0.7-1.6,1.1-2.3c1.2-2.6,2.6-5.1,4-7.6c4.2-7.4,9-14.5,14.9-20.6
		c1.2-1.2-0.7-3.1-1.9-1.9c-8.8,9.2-16,20.6-20.9,32.3C48.6,72.6,51.1,73.3,51.8,71.7"/>
</g>
</svg>
