<?xml version="1.0" encoding="utf-8"?>
<!-- Generator: Adobe Illustrator 28.1.0, SVG Export Plug-In . SVG Version: 6.00 Build 0)  -->
<svg version="1.1" id="Layer_1" xmlns="http://www.w3.org/2000/svg" xmlns:xlink="http://www.w3.org/1999/xlink" x="0px" y="0px"
	 viewBox="0 0 108.7 109.9" style="enable-background:new 0 0 108.7 109.9;" xml:space="preserve">
<style type="text/css">
	.st0{fill:#BD9E44;}
</style>
<g>
	<path class="st0" d="M86.3,48.4c-0.4,14-0.5,28.1-1.1,42.1c-0.1,1.4-0.3,2.8-1.9,3.3c-1.4,0.4-3.4,0.1-4.9,0.1h-6.5
		c-1.9,0-3.4-0.4-3.7-2.6c-0.3-2.2-0.1-4.6-0.2-6.9c-0.1-4.5-0.2-8.9-0.3-13.4l-0.6-22.6c0-1.7-2.7-1.7-2.7,0
		c0.2,6.9,0.3,13.9,0.5,20.8c0.2,7.3,0.1,14.7,0.6,22.1c0.2,2.5,1.8,4.7,4.4,5.2c1.6,0.3,3.3,0.1,4.8,0.1c3.6,0,9.9,1.2,12.2-2.4
		c1.3-2,0.9-5.1,1-7.4c0.1-4.5,0.2-9,0.3-13.5c0.2-8.3,0.4-16.5,0.6-24.8C89,46.6,86.3,46.6,86.3,48.4"/>
	<path class="st0" d="M87.1,67c4.1,0,7.8-1.5,9.4-5.5c0.9-2.2,0.6-4.8,0.6-7.1V44c0-2.7,0.1-5.4-1.8-7.7c-1.7-2-4.1-2.5-6.6-3
		c-3.4-0.6-6.9-0.9-10.4-1c-3.1-0.1-6.2,0.1-9.2,0.4c-2.9,0.3-6.5,0.4-9,1.9c-2.9,1.6-3.8,4.5-3.8,7.7v9.6c0,2.5-0.3,5.3,0.2,7.9
		c0.9,5,5.2,7.2,9.9,7.2c1.7,0,1.7-2.7,0-2.7c-3.9,0-7.1-1.9-7.3-6.1c-0.1-1.7,0-3.4,0-5v-8.2c0-1.6-0.3-3.6,0.2-5.2
		c0.9-2.9,3.6-3.3,6.2-3.8c2.9-0.5,5.9-0.8,8.8-0.9c2.7-0.1,5.3,0,8,0.2c2.9,0.2,6.2,0.4,9,1.4c3.1,1.1,3.3,3.9,3.3,6.6V51
		c0,2.3,0.1,4.6,0,6.9c-0.2,4.3-3.3,6.3-7.3,6.3C85.4,64.3,85.4,67,87.1,67"/>
	<path class="st0" d="M83.5,22.8c-0.1,3.7-3,6.8-6.8,6.8s-6.8-3.1-6.8-6.8s3.1-6.8,6.8-6.8S83.3,19.1,83.5,22.8
		c0.1,1.7,2.7,1.7,2.7,0c-0.2-5.1-4.2-9.4-9.4-9.4s-9.4,4.3-9.4,9.4s4.3,9.5,9.4,9.5c5.3,0,9.3-4.3,9.4-9.5
		C86.2,21.1,83.5,21.1,83.5,22.8"/>
	<path class="st0" d="M78,95.1V70c0-1.7-2.7-1.7-2.7,0v25.1C75.4,96.8,78,96.8,78,95.1"/>
	<path class="st0" d="M38.9,71.6c0,3.4-0.1,6.8-0.1,10.2c0,2.2-0.1,4.5-0.1,6.7c0,1.3,0.2,3.2-0.5,4.3c-1.1,1.6-4.4,0.9-6,0.9
		s-3.2,0.2-4.8,0c-3.2-0.4-2.2-7.8-2.2-10c-0.1-4.1-0.1-8.1-0.2-12.2c0-1.7-2.7-1.7-2.7,0c0.1,4.1,0.1,8.1,0.2,12.2
		c0,3.5-1,9.9,2.5,12c1.8,1.1,4.6,0.6,6.6,0.6c1.7,0,3.4,0.1,5.1,0c5.4-0.4,4.6-6.8,4.7-10.6c0.1-4.8,0.1-9.5,0.2-14.3
		C41.5,69.9,38.9,69.9,38.9,71.6"/>
	<path class="st0" d="M38.7,22.9c-0.1,3.7-3,6.8-6.8,6.8s-6.8-3.1-6.8-6.8s3.1-6.8,6.8-6.8S38.6,19.1,38.7,22.9
		c0.1,1.7,2.7,1.7,2.7,0c-0.2-5.2-4.2-9.5-9.5-9.5s-9.5,4.3-9.5,9.5s4.3,9.5,9.5,9.5c5.3,0,9.3-4.3,9.5-9.5
		C41.5,21.1,38.8,21.2,38.7,22.9"/>
	<path class="st0" d="M33.3,95.1V71.6c0-1.7-2.7-1.7-2.7,0v23.5C30.6,96.8,33.3,96.8,33.3,95.1"/>
	<path class="st0" d="M39.4,46.6c2.4,8.3,4.8,16.6,7.2,24.9l1.3-1.7h-7.7c-1.7,0-1.7,2.7,0,2.7h7.7c0.9,0,1.5-0.8,1.3-1.7
		c-2.4-8.3-4.8-16.6-7.2-24.9C41.5,44.2,38.9,44.9,39.4,46.6"/>
	<path class="st0" d="M23.6,69.8H16c0.4,0.6,0.9,1.1,1.3,1.7c2.4-8.3,4.8-16.6,7.2-24.9c0.5-1.7-2.1-2.4-2.6-0.7
		c-2.4,8.3-4.8,16.6-7.2,24.9c-0.2,0.8,0.4,1.7,1.3,1.7h7.7C25.4,72.4,25.4,69.8,23.6,69.8"/>
	<path class="st0" d="M18.4,62.2c-1.7-1.1-4.3-2.2-4-4.5c0.2-1.6,0.7-3.2,1-4.8c0.5-2.4,1-4.8,1.5-7.2c0.4-1.7,0.6-3.5,1.5-5
		c2.4-3.9,7.2-4.1,11.3-4.3c2.4-0.1,4.8,0,7.2,0.2c2.2,0.2,4.4,0.4,6.3,1.8c3.6,2.6,3.9,8.5,4.7,12.5c0.5,2.1,1.1,4.2,1.4,6.4
		c0.4,2.6-2.1,3.6-4,4.8c-1.4,1-0.1,3.3,1.3,2.3c2.2-1.5,5-2.8,5.3-5.7c0.2-1.9-0.6-4.1-1-5.9c-0.6-2.9-1.2-5.7-1.8-8.6
		c-0.5-2.5-1.2-4.8-3-6.7c-3.1-3.4-8-3.7-12.3-3.9c-4.5-0.2-10.5-0.4-14.5,2.1c-5,3.1-5.3,9.6-6.4,14.8c-0.5,2.2-1.1,4.5-1.4,6.7
		c-0.5,3.8,2.7,5.3,5.3,7.1C18.5,65.5,19.8,63.1,18.4,62.2"/>
	<path class="st0" d="M93.2,0H17c-2.2,0-4.4,0.1-6.5,0.9C5.3,2.7,1.3,7.3,0.4,12.7c-0.7,3.7-0.2,7.8-0.2,11.6v67.1c0,1,0,2,0,2.9
		c0.1,5.5,2.9,10.7,7.8,13.4c4.3,2.5,9.2,2.1,13.9,2.1h67.4c1.3,0,2.6,0,3.9,0c4.6-0.1,9-2,12-5.6c3.7-4.4,3.6-9.5,3.6-14.8V21.6
		c0-4.7,0.4-9.5-2.1-13.8C103.8,2.9,98.7,0.1,93.2,0c-1.7,0-1.7,2.6,0,2.7c6.2,0.1,11.7,4.5,12.7,10.8c0.2,1.4,0.2,2.8,0.2,4.2v64.2
		c0,4.1,0,8.2,0,12.3c-0.1,7.8-6.1,13.1-13.7,13.1c-12.8,0-25.6,0-38.4,0s-25.1,0-37.7,0c-7.6,0-13.4-5.6-13.5-13.3
		c0-4.3,0-8.5,0-12.8V17.2c0-1.7,0-3.3,0.4-4.9c1.5-5.7,6.6-9.5,12.4-9.6c11-0.2,22,0,33,0h44.5C94.9,2.7,94.9,0,93.2,0"/>
</g>
</svg>
